<!-- Generator: Adobe Illustrator 18.0.0, SVG Export Plug-In  -->
<svg version="1.1"
	 xmlns="http://www.w3.org/2000/svg" xmlns:xlink="http://www.w3.org/1999/xlink" xmlns:a="http://ns.adobe.com/AdobeSVGViewerExtensions/3.0/"
	 x="0px" y="0px" width="123.8px" height="67.1px" viewBox="0 0 123.8 67.1" enable-background="new 0 0 123.8 67.1"
	 xml:space="preserve">
<defs>
</defs>
<g>
	<radialGradient id="SVGID_1_" cx="61.4502" cy="66.8335" r="94.8358" gradientUnits="userSpaceOnUse">
		<stop  offset="0" style="stop-color:#FFFFFF"/>
		<stop  offset="0.1225" style="stop-color:#FFFFFB"/>
		<stop  offset="0.2476" style="stop-color:#FFFEEF"/>
		<stop  offset="0.374" style="stop-color:#FFFDDA"/>
		<stop  offset="0.5013" style="stop-color:#FFFCBD"/>
		<stop  offset="0.6295" style="stop-color:#FFFA98"/>
		<stop  offset="0.7582" style="stop-color:#FFF76B"/>
		<stop  offset="0.8849" style="stop-color:#FFF537"/>
		<stop  offset="1" style="stop-color:#FFF200"/>
	</radialGradient>
	<path fill="url(#SVGID_1_)" d="M123.2,58.2l-27.8,4c0.1,0.6,0.2,1.1,0.3,1.7l27.8-2.6C123.4,60.2,123.3,59.2,123.2,58.2z"/>
	<radialGradient id="SVGID_2_" cx="61.4501" cy="66.8335" r="94.8361" gradientUnits="userSpaceOnUse">
		<stop  offset="0" style="stop-color:#FFFFFF"/>
		<stop  offset="0.1225" style="stop-color:#FFFFFB"/>
		<stop  offset="0.2476" style="stop-color:#FFFEEF"/>
		<stop  offset="0.374" style="stop-color:#FFFDDA"/>
		<stop  offset="0.5013" style="stop-color:#FFFCBD"/>
		<stop  offset="0.6295" style="stop-color:#FFFA98"/>
		<stop  offset="0.7582" style="stop-color:#FFF76B"/>
		<stop  offset="0.8849" style="stop-color:#FFF537"/>
		<stop  offset="1" style="stop-color:#FFF200"/>
	</radialGradient>
	<path fill="url(#SVGID_2_)" d="M122.1,52l-27.4,6.8c0.1,0.5,0.3,1.1,0.4,1.7l27.6-5.4C122.5,54.1,122.3,53,122.1,52z"/>
	<radialGradient id="SVGID_3_" cx="61.4502" cy="66.8333" r="94.8357" gradientUnits="userSpaceOnUse">
		<stop  offset="0" style="stop-color:#FFFFFF"/>
		<stop  offset="0.1225" style="stop-color:#FFFFFB"/>
		<stop  offset="0.2476" style="stop-color:#FFFEEF"/>
		<stop  offset="0.374" style="stop-color:#FFFDDA"/>
		<stop  offset="0.5013" style="stop-color:#FFFCBD"/>
		<stop  offset="0.6295" style="stop-color:#FFFA98"/>
		<stop  offset="0.7582" style="stop-color:#FFF76B"/>
		<stop  offset="0.8849" style="stop-color:#FFF537"/>
		<stop  offset="1" style="stop-color:#FFF200"/>
	</radialGradient>
	<path fill="url(#SVGID_3_)" d="M23.2,15.1l18,24.3c0.4-0.3,0.8-0.7,1.2-1l-17-25.2C24.7,13.8,24,14.4,23.2,15.1z"/>
	<radialGradient id="SVGID_4_" cx="61.4496" cy="66.8334" r="94.8366" gradientUnits="userSpaceOnUse">
		<stop  offset="0" style="stop-color:#FFFFFF"/>
		<stop  offset="0.1225" style="stop-color:#FFFFFB"/>
		<stop  offset="0.2476" style="stop-color:#FFFEEF"/>
		<stop  offset="0.374" style="stop-color:#FFFDDA"/>
		<stop  offset="0.5013" style="stop-color:#FFFCBD"/>
		<stop  offset="0.6295" style="stop-color:#FFFA98"/>
		<stop  offset="0.7582" style="stop-color:#FFF76B"/>
		<stop  offset="0.8849" style="stop-color:#FFF537"/>
		<stop  offset="1" style="stop-color:#FFF200"/>
	</radialGradient>
	<path fill="url(#SVGID_4_)" d="M120.5,46.1l-26.8,9.6c0.2,0.5,0.4,1.1,0.5,1.6l27.2-8.2C121.1,48,120.8,47,120.5,46.1z"/>
	<radialGradient id="SVGID_5_" cx="61.4497" cy="66.8334" r="94.835" gradientUnits="userSpaceOnUse">
		<stop  offset="0" style="stop-color:#FFFFFF"/>
		<stop  offset="0.1225" style="stop-color:#FFFFFB"/>
		<stop  offset="0.2476" style="stop-color:#FFFEEF"/>
		<stop  offset="0.374" style="stop-color:#FFFDDA"/>
		<stop  offset="0.5013" style="stop-color:#FFFCBD"/>
		<stop  offset="0.6295" style="stop-color:#FFFA98"/>
		<stop  offset="0.7582" style="stop-color:#FFF76B"/>
		<stop  offset="0.8849" style="stop-color:#FFF537"/>
		<stop  offset="1" style="stop-color:#FFF200"/>
	</radialGradient>
	<path fill="url(#SVGID_5_)" d="M19,19.2L39,41.5c0.4-0.4,0.7-0.7,1.1-1.1l-19-23.4C20.4,17.7,19.7,18.4,19,19.2z"/>
	<radialGradient id="SVGID_6_" cx="61.4508" cy="66.8333" r="94.8362" gradientUnits="userSpaceOnUse">
		<stop  offset="0" style="stop-color:#FFFFFF"/>
		<stop  offset="0.1225" style="stop-color:#FFFFFB"/>
		<stop  offset="0.2476" style="stop-color:#FFFEEF"/>
		<stop  offset="0.374" style="stop-color:#FFFDDA"/>
		<stop  offset="0.5013" style="stop-color:#FFFCBD"/>
		<stop  offset="0.6295" style="stop-color:#FFFA98"/>
		<stop  offset="0.7582" style="stop-color:#FFF76B"/>
		<stop  offset="0.8849" style="stop-color:#FFF537"/>
		<stop  offset="1" style="stop-color:#FFF200"/>
	</radialGradient>
	<path fill="url(#SVGID_6_)" d="M32.6,8.2l13.7,27.6c0.4-0.3,0.9-0.5,1.3-0.7L35.1,6.8C34.3,7.2,33.5,7.7,32.6,8.2z"/>
	<radialGradient id="SVGID_7_" cx="61.4505" cy="66.8332" r="94.8362" gradientUnits="userSpaceOnUse">
		<stop  offset="0" style="stop-color:#FFFFFF"/>
		<stop  offset="0.1225" style="stop-color:#FFFFFB"/>
		<stop  offset="0.2476" style="stop-color:#FFFEEF"/>
		<stop  offset="0.374" style="stop-color:#FFFDDA"/>
		<stop  offset="0.5013" style="stop-color:#FFFCBD"/>
		<stop  offset="0.6295" style="stop-color:#FFFA98"/>
		<stop  offset="0.7582" style="stop-color:#FFF76B"/>
		<stop  offset="0.8849" style="stop-color:#FFF537"/>
		<stop  offset="1" style="stop-color:#FFF200"/>
	</radialGradient>
	<path fill="url(#SVGID_7_)" d="M15.1,23.7l21.7,20.2c0.3-0.4,0.7-0.8,1-1.2L17,21.4C16.4,22.1,15.8,22.9,15.1,23.7z"/>
	<radialGradient id="SVGID_8_" cx="61.4501" cy="66.8336" r="94.8365" gradientUnits="userSpaceOnUse">
		<stop  offset="0" style="stop-color:#FFFFFF"/>
		<stop  offset="0.1225" style="stop-color:#FFFFFB"/>
		<stop  offset="0.2476" style="stop-color:#FFFEEF"/>
		<stop  offset="0.374" style="stop-color:#FFFDDA"/>
		<stop  offset="0.5013" style="stop-color:#FFFCBD"/>
		<stop  offset="0.6295" style="stop-color:#FFFA98"/>
		<stop  offset="0.7582" style="stop-color:#FFF76B"/>
		<stop  offset="0.8849" style="stop-color:#FFF537"/>
		<stop  offset="1" style="stop-color:#FFF200"/>
	</radialGradient>
	<path fill="url(#SVGID_8_)" d="M48.4,1.6l6.2,30.8c0.5-0.1,1-0.2,1.5-0.3L51.2,1C50.3,1.2,49.4,1.4,48.4,1.6z"/>
	<radialGradient id="SVGID_9_" cx="61.4501" cy="66.8332" r="94.8352" gradientUnits="userSpaceOnUse">
		<stop  offset="0" style="stop-color:#FFFFFF"/>
		<stop  offset="0.1225" style="stop-color:#FFFFFB"/>
		<stop  offset="0.2476" style="stop-color:#FFFEEF"/>
		<stop  offset="0.374" style="stop-color:#FFFDDA"/>
		<stop  offset="0.5013" style="stop-color:#FFFCBD"/>
		<stop  offset="0.6295" style="stop-color:#FFFA98"/>
		<stop  offset="0.7582" style="stop-color:#FFF76B"/>
		<stop  offset="0.8849" style="stop-color:#FFF537"/>
		<stop  offset="1" style="stop-color:#FFF200"/>
	</radialGradient>
	<path fill="url(#SVGID_9_)" d="M43,3.3l8.8,30c0.5-0.2,1-0.3,1.4-0.5L45.7,2.4C44.8,2.7,43.9,3,43,3.3z"/>
	<radialGradient id="SVGID_10_" cx="61.4506" cy="66.8332" r="94.8355" gradientUnits="userSpaceOnUse">
		<stop  offset="0" style="stop-color:#FFFFFF"/>
		<stop  offset="0.1225" style="stop-color:#FFFFFB"/>
		<stop  offset="0.2476" style="stop-color:#FFFEEF"/>
		<stop  offset="0.374" style="stop-color:#FFFDDA"/>
		<stop  offset="0.5013" style="stop-color:#FFFCBD"/>
		<stop  offset="0.6295" style="stop-color:#FFFA98"/>
		<stop  offset="0.7582" style="stop-color:#FFF76B"/>
		<stop  offset="0.8849" style="stop-color:#FFF537"/>
		<stop  offset="1" style="stop-color:#FFF200"/>
	</radialGradient>
	<path fill="url(#SVGID_10_)" d="M37.7,5.5l11.3,29c0.5-0.2,0.9-0.4,1.4-0.6L40.3,4.3C39.4,4.7,38.6,5.1,37.7,5.5z"/>
	<radialGradient id="SVGID_11_" cx="61.4503" cy="66.8337" r="94.8364" gradientUnits="userSpaceOnUse">
		<stop  offset="0" style="stop-color:#FFFFFF"/>
		<stop  offset="0.1225" style="stop-color:#FFFFFB"/>
		<stop  offset="0.2476" style="stop-color:#FFFEEF"/>
		<stop  offset="0.374" style="stop-color:#FFFDDA"/>
		<stop  offset="0.5013" style="stop-color:#FFFCBD"/>
		<stop  offset="0.6295" style="stop-color:#FFFA98"/>
		<stop  offset="0.7582" style="stop-color:#FFF76B"/>
		<stop  offset="0.8849" style="stop-color:#FFF537"/>
		<stop  offset="1" style="stop-color:#FFF200"/>
	</radialGradient>
	<path fill="url(#SVGID_11_)" d="M1,57.2l27.6,4.5c0.1-0.6,0.2-1.1,0.4-1.7L1.5,54.1C1.3,55.1,1.1,56.2,1,57.2z"/>
	<radialGradient id="SVGID_12_" cx="61.4504" cy="66.8332" r="94.8366" gradientUnits="userSpaceOnUse">
		<stop  offset="0" style="stop-color:#FFFFFF"/>
		<stop  offset="0.1225" style="stop-color:#FFFFFB"/>
		<stop  offset="0.2476" style="stop-color:#FFFEEF"/>
		<stop  offset="0.374" style="stop-color:#FFFDDA"/>
		<stop  offset="0.5013" style="stop-color:#FFFCBD"/>
		<stop  offset="0.6295" style="stop-color:#FFFA98"/>
		<stop  offset="0.7582" style="stop-color:#FFF76B"/>
		<stop  offset="0.8849" style="stop-color:#FFF537"/>
		<stop  offset="1" style="stop-color:#FFF200"/>
	</radialGradient>
	<path fill="url(#SVGID_12_)" d="M2.1,51.1l27.2,7.3c0.2-0.5,0.3-1.1,0.5-1.6L2.9,48.1C2.6,49.1,2.4,50.1,2.1,51.1z"/>
	<radialGradient id="SVGID_13_" cx="61.4502" cy="66.8335" r="94.8362" gradientUnits="userSpaceOnUse">
		<stop  offset="0" style="stop-color:#FFFFFF"/>
		<stop  offset="0.1225" style="stop-color:#FFFFFB"/>
		<stop  offset="0.2476" style="stop-color:#FFFEEF"/>
		<stop  offset="0.374" style="stop-color:#FFFDDA"/>
		<stop  offset="0.5013" style="stop-color:#FFFCBD"/>
		<stop  offset="0.6295" style="stop-color:#FFFA98"/>
		<stop  offset="0.7582" style="stop-color:#FFF76B"/>
		<stop  offset="0.8849" style="stop-color:#FFF537"/>
		<stop  offset="1" style="stop-color:#FFF200"/>
	</radialGradient>
	<path fill="url(#SVGID_13_)" d="M54,0.6l3.6,31.3c0.5-0.1,1-0.1,1.5-0.2L56.8,0.2C55.9,0.3,54.9,0.4,54,0.6z"/>
	<radialGradient id="SVGID_14_" cx="61.45" cy="66.8333" r="94.8357" gradientUnits="userSpaceOnUse">
		<stop  offset="0" style="stop-color:#FFFFFF"/>
		<stop  offset="0.1225" style="stop-color:#FFFFFB"/>
		<stop  offset="0.2476" style="stop-color:#FFFEEF"/>
		<stop  offset="0.374" style="stop-color:#FFFDDA"/>
		<stop  offset="0.5013" style="stop-color:#FFFCBD"/>
		<stop  offset="0.6295" style="stop-color:#FFFA98"/>
		<stop  offset="0.7582" style="stop-color:#FFF76B"/>
		<stop  offset="0.8849" style="stop-color:#FFF537"/>
		<stop  offset="1" style="stop-color:#FFF200"/>
	</radialGradient>
	<path fill="url(#SVGID_14_)" d="M0.3,63.4L28,65c0.1-0.6,0.1-1.1,0.2-1.7L0.6,60.3C0.5,61.3,0.4,62.3,0.3,63.4z"/>
	<radialGradient id="SVGID_15_" cx="61.45" cy="66.8331" r="94.835" gradientUnits="userSpaceOnUse">
		<stop  offset="0" style="stop-color:#FFFFFF"/>
		<stop  offset="0.1225" style="stop-color:#FFFFFB"/>
		<stop  offset="0.2476" style="stop-color:#FFFEEF"/>
		<stop  offset="0.374" style="stop-color:#FFFDDA"/>
		<stop  offset="0.5013" style="stop-color:#FFFCBD"/>
		<stop  offset="0.6295" style="stop-color:#FFFA98"/>
		<stop  offset="0.7582" style="stop-color:#FFF76B"/>
		<stop  offset="0.8849" style="stop-color:#FFF537"/>
		<stop  offset="1" style="stop-color:#FFF200"/>
	</radialGradient>
	<path fill="url(#SVGID_15_)" d="M11.7,28.6l23.2,17.8c0.3-0.4,0.6-0.9,0.9-1.3l-22.5-19C12.8,26.9,12.2,27.7,11.7,28.6z"/>
	<radialGradient id="SVGID_16_" cx="61.4497" cy="66.8335" r="94.8348" gradientUnits="userSpaceOnUse">
		<stop  offset="0" style="stop-color:#FFFFFF"/>
		<stop  offset="0.1225" style="stop-color:#FFFFFB"/>
		<stop  offset="0.2476" style="stop-color:#FFFEEF"/>
		<stop  offset="0.374" style="stop-color:#FFFDDA"/>
		<stop  offset="0.5013" style="stop-color:#FFFCBD"/>
		<stop  offset="0.6295" style="stop-color:#FFFA98"/>
		<stop  offset="0.7582" style="stop-color:#FFF76B"/>
		<stop  offset="0.8849" style="stop-color:#FFF537"/>
		<stop  offset="1" style="stop-color:#FFF200"/>
	</radialGradient>
	<path fill="url(#SVGID_16_)" d="M3.8,45.1l26.6,10c0.2-0.5,0.4-1,0.6-1.6L4.8,42.2C4.4,43.2,4.1,44.1,3.8,45.1z"/>
	<radialGradient id="SVGID_17_" cx="61.4495" cy="66.8336" r="94.8347" gradientUnits="userSpaceOnUse">
		<stop  offset="0" style="stop-color:#FFFFFF"/>
		<stop  offset="0.1225" style="stop-color:#FFFFFB"/>
		<stop  offset="0.2476" style="stop-color:#FFFEEF"/>
		<stop  offset="0.374" style="stop-color:#FFFDDA"/>
		<stop  offset="0.5013" style="stop-color:#FFFCBD"/>
		<stop  offset="0.6295" style="stop-color:#FFFA98"/>
		<stop  offset="0.7582" style="stop-color:#FFF76B"/>
		<stop  offset="0.8849" style="stop-color:#FFF537"/>
		<stop  offset="1" style="stop-color:#FFF200"/>
	</radialGradient>
	<path fill="url(#SVGID_17_)" d="M8.6,33.8l24.6,15.4c0.3-0.5,0.6-0.9,0.8-1.4L10.1,31.2C9.6,32,9.1,32.9,8.6,33.8z"/>
	<radialGradient id="SVGID_18_" cx="61.4496" cy="66.8336" r="94.8346" gradientUnits="userSpaceOnUse">
		<stop  offset="0" style="stop-color:#FFFFFF"/>
		<stop  offset="0.1225" style="stop-color:#FFFFFB"/>
		<stop  offset="0.2476" style="stop-color:#FFFEEF"/>
		<stop  offset="0.374" style="stop-color:#FFFDDA"/>
		<stop  offset="0.5013" style="stop-color:#FFFCBD"/>
		<stop  offset="0.6295" style="stop-color:#FFFA98"/>
		<stop  offset="0.7582" style="stop-color:#FFF76B"/>
		<stop  offset="0.8849" style="stop-color:#FFF537"/>
		<stop  offset="1" style="stop-color:#FFF200"/>
	</radialGradient>
	<path fill="url(#SVGID_18_)" d="M6,39.3l25.7,12.8c0.2-0.5,0.5-1,0.7-1.5L7.2,36.5C6.8,37.5,6.3,38.4,6,39.3z"/>
	<radialGradient id="SVGID_19_" cx="61.4495" cy="66.8338" r="94.8359" gradientUnits="userSpaceOnUse">
		<stop  offset="0" style="stop-color:#FFFFFF"/>
		<stop  offset="0.1225" style="stop-color:#FFFFFB"/>
		<stop  offset="0.2476" style="stop-color:#FFFEEF"/>
		<stop  offset="0.374" style="stop-color:#FFFDDA"/>
		<stop  offset="0.5013" style="stop-color:#FFFCBD"/>
		<stop  offset="0.6295" style="stop-color:#FFFA98"/>
		<stop  offset="0.7582" style="stop-color:#FFF76B"/>
		<stop  offset="0.8849" style="stop-color:#FFF537"/>
		<stop  offset="1" style="stop-color:#FFF200"/>
	</radialGradient>
	<path fill="url(#SVGID_19_)" d="M27.8,11.4l15.9,26.1c0.4-0.3,0.8-0.6,1.3-0.9L30.2,9.7C29.4,10.2,28.6,10.8,27.8,11.4z"/>
	<radialGradient id="SVGID_20_" cx="61.4496" cy="66.8333" r="94.8367" gradientUnits="userSpaceOnUse">
		<stop  offset="0" style="stop-color:#FFFFFF"/>
		<stop  offset="0.1225" style="stop-color:#FFFFFB"/>
		<stop  offset="0.2476" style="stop-color:#FFFEEF"/>
		<stop  offset="0.374" style="stop-color:#FFFDDA"/>
		<stop  offset="0.5013" style="stop-color:#FFFCBD"/>
		<stop  offset="0.6295" style="stop-color:#FFFA98"/>
		<stop  offset="0.7582" style="stop-color:#FFF76B"/>
		<stop  offset="0.8849" style="stop-color:#FFF537"/>
		<stop  offset="1" style="stop-color:#FFF200"/>
	</radialGradient>
	<path fill="url(#SVGID_20_)" d="M109.4,24.5L87.3,44.2c0.3,0.4,0.7,0.8,1,1.3l22.9-18.6C110.6,26.1,110,25.3,109.4,24.5z"/>
	<radialGradient id="SVGID_21_" cx="61.4495" cy="66.8332" r="94.8367" gradientUnits="userSpaceOnUse">
		<stop  offset="0" style="stop-color:#FFFFFF"/>
		<stop  offset="0.1225" style="stop-color:#FFFFFB"/>
		<stop  offset="0.2476" style="stop-color:#FFFEEF"/>
		<stop  offset="0.374" style="stop-color:#FFFDDA"/>
		<stop  offset="0.5013" style="stop-color:#FFFCBD"/>
		<stop  offset="0.6295" style="stop-color:#FFFA98"/>
		<stop  offset="0.7582" style="stop-color:#FFF76B"/>
		<stop  offset="0.8849" style="stop-color:#FFF537"/>
		<stop  offset="1" style="stop-color:#FFF200"/>
	</radialGradient>
	<path fill="url(#SVGID_21_)" d="M105.6,19.9L85.2,41.8c0.4,0.4,0.7,0.8,1.1,1.2l21.3-20.9C107,21.4,106.3,20.6,105.6,19.9z"/>
	<radialGradient id="SVGID_22_" cx="61.4502" cy="66.8334" r="94.836" gradientUnits="userSpaceOnUse">
		<stop  offset="0" style="stop-color:#FFFFFF"/>
		<stop  offset="0.1225" style="stop-color:#FFFFFB"/>
		<stop  offset="0.2476" style="stop-color:#FFFEEF"/>
		<stop  offset="0.374" style="stop-color:#FFFDDA"/>
		<stop  offset="0.5013" style="stop-color:#FFFCBD"/>
		<stop  offset="0.6295" style="stop-color:#FFFA98"/>
		<stop  offset="0.7582" style="stop-color:#FFF76B"/>
		<stop  offset="0.8849" style="stop-color:#FFF537"/>
		<stop  offset="1" style="stop-color:#FFF200"/>
	</radialGradient>
	<path fill="url(#SVGID_22_)" d="M101.5,15.7l-18.6,24c0.4,0.3,0.8,0.7,1.2,1.1l19.5-23C102.9,17.1,102.2,16.4,101.5,15.7z"/>
	<radialGradient id="SVGID_23_" cx="61.4496" cy="66.8337" r="94.8364" gradientUnits="userSpaceOnUse">
		<stop  offset="0" style="stop-color:#FFFFFF"/>
		<stop  offset="0.1225" style="stop-color:#FFFFFB"/>
		<stop  offset="0.2476" style="stop-color:#FFFEEF"/>
		<stop  offset="0.374" style="stop-color:#FFFDDA"/>
		<stop  offset="0.5013" style="stop-color:#FFFCBD"/>
		<stop  offset="0.6295" style="stop-color:#FFFA98"/>
		<stop  offset="0.7582" style="stop-color:#FFF76B"/>
		<stop  offset="0.8849" style="stop-color:#FFF537"/>
		<stop  offset="1" style="stop-color:#FFF200"/>
	</radialGradient>
	<path fill="url(#SVGID_23_)" d="M59.6,0.1l1,31.6c0.4,0,0.9,0,1.3,0c0.1,0,0.1,0,0.2,0L62.4,0c-0.1,0-0.3,0-0.4,0
		C61.2,0,60.4,0,59.6,0.1z"/>
	<radialGradient id="SVGID_24_" cx="61.4498" cy="66.8332" r="94.8364" gradientUnits="userSpaceOnUse">
		<stop  offset="0" style="stop-color:#FFFFFF"/>
		<stop  offset="0.1225" style="stop-color:#FFFFFB"/>
		<stop  offset="0.2476" style="stop-color:#FFFEEF"/>
		<stop  offset="0.374" style="stop-color:#FFFDDA"/>
		<stop  offset="0.5013" style="stop-color:#FFFCBD"/>
		<stop  offset="0.6295" style="stop-color:#FFFA98"/>
		<stop  offset="0.7582" style="stop-color:#FFF76B"/>
		<stop  offset="0.8849" style="stop-color:#FFF537"/>
		<stop  offset="1" style="stop-color:#FFF200"/>
	</radialGradient>
	<path fill="url(#SVGID_24_)" d="M118.4,40.3l-26,12.3c0.2,0.5,0.4,1,0.7,1.5l26.5-10.9C119.1,42.2,118.8,41.2,118.4,40.3z"/>
	<radialGradient id="SVGID_25_" cx="61.45" cy="66.8334" r="94.8359" gradientUnits="userSpaceOnUse">
		<stop  offset="0" style="stop-color:#FFFFFF"/>
		<stop  offset="0.1225" style="stop-color:#FFFFFB"/>
		<stop  offset="0.2476" style="stop-color:#FFFEEF"/>
		<stop  offset="0.374" style="stop-color:#FFFDDA"/>
		<stop  offset="0.5013" style="stop-color:#FFFCBD"/>
		<stop  offset="0.6295" style="stop-color:#FFFA98"/>
		<stop  offset="0.7582" style="stop-color:#FFF76B"/>
		<stop  offset="0.8849" style="stop-color:#FFF537"/>
		<stop  offset="1" style="stop-color:#FFF200"/>
	</radialGradient>
	<path fill="url(#SVGID_25_)" d="M115.9,34.7l-25,14.9c0.3,0.5,0.5,1,0.8,1.4l25.5-13.6C116.8,36.5,116.3,35.6,115.9,34.7z"/>
	<radialGradient id="SVGID_26_" cx="61.4505" cy="66.8335" r="94.8352" gradientUnits="userSpaceOnUse">
		<stop  offset="0" style="stop-color:#FFFFFF"/>
		<stop  offset="0.1225" style="stop-color:#FFFFFB"/>
		<stop  offset="0.2476" style="stop-color:#FFFEEF"/>
		<stop  offset="0.374" style="stop-color:#FFFDDA"/>
		<stop  offset="0.5013" style="stop-color:#FFFCBD"/>
		<stop  offset="0.6295" style="stop-color:#FFFA98"/>
		<stop  offset="0.7582" style="stop-color:#FFF76B"/>
		<stop  offset="0.8849" style="stop-color:#FFF537"/>
		<stop  offset="1" style="stop-color:#FFF200"/>
	</radialGradient>
	<path fill="url(#SVGID_26_)" d="M97,12L80.5,37.7c0.4,0.3,0.8,0.6,1.2,0.9l17.6-24.9C98.5,13.2,97.7,12.5,97,12z"/>
	<radialGradient id="SVGID_27_" cx="61.4502" cy="66.8336" r="94.8359" gradientUnits="userSpaceOnUse">
		<stop  offset="0" style="stop-color:#FFFFFF"/>
		<stop  offset="0.1225" style="stop-color:#FFFFFB"/>
		<stop  offset="0.2476" style="stop-color:#FFFEEF"/>
		<stop  offset="0.374" style="stop-color:#FFFDDA"/>
		<stop  offset="0.5013" style="stop-color:#FFFCBD"/>
		<stop  offset="0.6295" style="stop-color:#FFFA98"/>
		<stop  offset="0.7582" style="stop-color:#FFF76B"/>
		<stop  offset="0.8849" style="stop-color:#FFF537"/>
		<stop  offset="1" style="stop-color:#FFF200"/>
	</radialGradient>
	<path fill="url(#SVGID_27_)" d="M112.9,29.4L89.2,46.8c0.3,0.4,0.6,0.9,0.9,1.4L114.4,32C113.9,31.2,113.4,30.3,112.9,29.4z"/>
	<radialGradient id="SVGID_28_" cx="61.4501" cy="66.8334" r="94.8358" gradientUnits="userSpaceOnUse">
		<stop  offset="0" style="stop-color:#FFFFFF"/>
		<stop  offset="0.1225" style="stop-color:#FFFFFB"/>
		<stop  offset="0.2476" style="stop-color:#FFFEEF"/>
		<stop  offset="0.374" style="stop-color:#FFFDDA"/>
		<stop  offset="0.5013" style="stop-color:#FFFCBD"/>
		<stop  offset="0.6295" style="stop-color:#FFFA98"/>
		<stop  offset="0.7582" style="stop-color:#FFF76B"/>
		<stop  offset="0.8849" style="stop-color:#FFF537"/>
		<stop  offset="1" style="stop-color:#FFF200"/>
	</radialGradient>
	<path fill="url(#SVGID_28_)" d="M76.4,1.9l-6.9,30.7c0.5,0.1,1,0.3,1.4,0.4l8.2-30.3C78.2,2.4,77.3,2.1,76.4,1.9z"/>
	<radialGradient id="SVGID_29_" cx="61.4496" cy="66.8333" r="94.8359" gradientUnits="userSpaceOnUse">
		<stop  offset="0" style="stop-color:#FFFFFF"/>
		<stop  offset="0.1225" style="stop-color:#FFFFFB"/>
		<stop  offset="0.2476" style="stop-color:#FFFEEF"/>
		<stop  offset="0.374" style="stop-color:#FFFDDA"/>
		<stop  offset="0.5013" style="stop-color:#FFFCBD"/>
		<stop  offset="0.6295" style="stop-color:#FFFA98"/>
		<stop  offset="0.7582" style="stop-color:#FFF76B"/>
		<stop  offset="0.8849" style="stop-color:#FFF537"/>
		<stop  offset="1" style="stop-color:#FFF200"/>
	</radialGradient>
	<path fill="url(#SVGID_29_)" d="M70.9,0.7l-4.3,31.2c0.5,0.1,1,0.2,1.5,0.3l5.6-31C72.7,1,71.8,0.8,70.9,0.7z"/>
	<radialGradient id="SVGID_30_" cx="61.4501" cy="66.8335" r="94.8358" gradientUnits="userSpaceOnUse">
		<stop  offset="0" style="stop-color:#FFFFFF"/>
		<stop  offset="0.1225" style="stop-color:#FFFFFB"/>
		<stop  offset="0.2476" style="stop-color:#FFFEEF"/>
		<stop  offset="0.374" style="stop-color:#FFFDDA"/>
		<stop  offset="0.5013" style="stop-color:#FFFCBD"/>
		<stop  offset="0.6295" style="stop-color:#FFFA98"/>
		<stop  offset="0.7582" style="stop-color:#FFF76B"/>
		<stop  offset="0.8849" style="stop-color:#FFF537"/>
		<stop  offset="1" style="stop-color:#FFF200"/>
	</radialGradient>
	<path fill="url(#SVGID_30_)" d="M65.2,0.1l-1.7,31.5c0.5,0,1,0.1,1.5,0.1l3-31.4C67.1,0.2,66.2,0.1,65.2,0.1z"/>
	<radialGradient id="SVGID_31_" cx="61.4502" cy="66.8336" r="94.836" gradientUnits="userSpaceOnUse">
		<stop  offset="0" style="stop-color:#FFFFFF"/>
		<stop  offset="0.1225" style="stop-color:#FFFFFB"/>
		<stop  offset="0.2476" style="stop-color:#FFFEEF"/>
		<stop  offset="0.374" style="stop-color:#FFFDDA"/>
		<stop  offset="0.5013" style="stop-color:#FFFCBD"/>
		<stop  offset="0.6295" style="stop-color:#FFFA98"/>
		<stop  offset="0.7582" style="stop-color:#FFF76B"/>
		<stop  offset="0.8849" style="stop-color:#FFF537"/>
		<stop  offset="1" style="stop-color:#FFF200"/>
	</radialGradient>
	<path fill="url(#SVGID_31_)" d="M87.1,5.9L75.2,34.6c0.5,0.2,0.9,0.4,1.4,0.7L89.7,7.2C88.8,6.7,88,6.3,87.1,5.9z"/>
	<radialGradient id="SVGID_32_" cx="61.4496" cy="66.8336" r="94.8221" gradientUnits="userSpaceOnUse">
		<stop  offset="0" style="stop-color:#FFFFFF"/>
		<stop  offset="0.1225" style="stop-color:#FFFFFB"/>
		<stop  offset="0.2476" style="stop-color:#FFFEEF"/>
		<stop  offset="0.374" style="stop-color:#FFFDDA"/>
		<stop  offset="0.5013" style="stop-color:#FFFCBD"/>
		<stop  offset="0.6295" style="stop-color:#FFFA98"/>
		<stop  offset="0.7582" style="stop-color:#FFF76B"/>
		<stop  offset="0.8849" style="stop-color:#FFF537"/>
		<stop  offset="1" style="stop-color:#FFF200"/>
	</radialGradient>
	<path fill="url(#SVGID_32_)" d="M92.2,8.7L77.9,36c0.4,0.3,0.9,0.5,1.3,0.8l15.4-26.6C93.8,9.7,93,9.2,92.2,8.7z"/>
	<radialGradient id="SVGID_33_" cx="61.45" cy="66.8337" r="94.8364" gradientUnits="userSpaceOnUse">
		<stop  offset="0" style="stop-color:#FFFFFF"/>
		<stop  offset="0.1225" style="stop-color:#FFFFFB"/>
		<stop  offset="0.2476" style="stop-color:#FFFEEF"/>
		<stop  offset="0.374" style="stop-color:#FFFDDA"/>
		<stop  offset="0.5013" style="stop-color:#FFFCBD"/>
		<stop  offset="0.6295" style="stop-color:#FFFA98"/>
		<stop  offset="0.7582" style="stop-color:#FFF76B"/>
		<stop  offset="0.8849" style="stop-color:#FFF537"/>
		<stop  offset="1" style="stop-color:#FFF200"/>
	</radialGradient>
	<path fill="url(#SVGID_33_)" d="M81.8,3.6l-9.5,29.8c0.5,0.2,0.9,0.4,1.4,0.5L84.5,4.7C83.6,4.3,82.7,3.9,81.8,3.6z"/>
	<radialGradient id="SVGID_34_" cx="61.4501" cy="66.8332" r="94.8362" gradientUnits="userSpaceOnUse">
		<stop  offset="0" style="stop-color:#FFFFFF"/>
		<stop  offset="0.1225" style="stop-color:#FFFFFB"/>
		<stop  offset="0.2476" style="stop-color:#FFFEEF"/>
		<stop  offset="0.374" style="stop-color:#FFFDDA"/>
		<stop  offset="0.5013" style="stop-color:#FFFCBD"/>
		<stop  offset="0.6295" style="stop-color:#FFFA98"/>
		<stop  offset="0.7582" style="stop-color:#FFF76B"/>
		<stop  offset="0.8849" style="stop-color:#FFF537"/>
		<stop  offset="1" style="stop-color:#FFF200"/>
	</radialGradient>
	<path fill="url(#SVGID_34_)" d="M123.7,64.8l-27.8,1.2c0,0,0,0.1,0,0.1c0,0.3,0,0.7,0.1,1h27.8C123.8,66.3,123.8,65.5,123.7,64.8z"
		/>
	<radialGradient id="SVGID_35_" cx="61.4504" cy="66.8335" r="94.8368" gradientUnits="userSpaceOnUse">
		<stop  offset="0" style="stop-color:#FFFFFF"/>
		<stop  offset="0.1225" style="stop-color:#FFFFFB"/>
		<stop  offset="0.2476" style="stop-color:#FFFEEF"/>
		<stop  offset="0.374" style="stop-color:#FFFDDA"/>
		<stop  offset="0.5013" style="stop-color:#FFFCBD"/>
		<stop  offset="0.6295" style="stop-color:#FFFA98"/>
		<stop  offset="0.7582" style="stop-color:#FFF76B"/>
		<stop  offset="0.8849" style="stop-color:#FFF537"/>
		<stop  offset="1" style="stop-color:#FFF200"/>
	</radialGradient>
	<path fill="url(#SVGID_35_)" d="M0,67h27.8c0,0,0-0.1,0-0.1c0-0.2,0-0.4,0.1-0.7L0,65.2C0,65.4,0,66.7,0,67z"/>
</g>
<path fill="#D7DF23" d="M92.3,66.1c-1.6-17.3-14.6-30.8-30.4-30.8c-16.1,0-29.2,13.9-30.5,31.6c0,0.1,0,0.1,0,0.2h7.8h32.2h21
	C92.4,66.8,92.4,66.4,92.3,66.1z"/>
<path fill="#FFF200" d="M87.2,66.3c-1.3-14.4-12.1-25.6-25.3-25.6c-13.4,0-24.3,11.6-25.3,26.2c0,0,0,0.1,0,0.1h6.5h26.7h17.4
	C87.2,66.8,87.2,66.5,87.2,66.3z"/>
<path fill="#E39925" d="M80.1,66.5c-0.9-10.3-8.7-18.4-18.2-18.4c-9.6,0-17.5,8.3-18.2,18.9c0,0,0,0.1,0,0.1h4.7h19.2h12.6
	C80.1,66.9,80.1,66.7,80.1,66.5z"/>
</svg>
