<!-- Generator: Adobe Illustrator 18.0.0, SVG Export Plug-In  -->
<svg version="1.1"
	 xmlns="http://www.w3.org/2000/svg" xmlns:xlink="http://www.w3.org/1999/xlink" xmlns:a="http://ns.adobe.com/AdobeSVGViewerExtensions/3.0/"
	 x="0px" y="0px" width="150px" height="198.5px" viewBox="0 0 150 198.5" enable-background="new 0 0 150 198.5"
	 xml:space="preserve">
<defs>
</defs>
<g>
	<path fill="#010203" d="M30.5,197.9h-3.9v-22.5c0-0.9,0-1.9,0.1-3c0.1-1.1,0.1-2.3,0.2-3.6h-0.1c-0.1,0.4-0.2,0.8-0.4,1.3
		c-0.2,0.5-0.4,0.9-0.6,1.3c-0.2,0.4-0.4,0.8-0.6,1.2c-0.2,0.3-0.3,0.6-0.4,0.8l-8.6,15.9h-1.9l-8.6-15.9c-0.1-0.2-0.2-0.5-0.4-0.8
		c-0.2-0.4-0.4-0.7-0.6-1.2c-0.2-0.4-0.4-0.9-0.6-1.3c-0.2-0.5-0.3-0.9-0.4-1.3H3.6c0.1,0.7,0.1,1.6,0.1,2.7c0,1.1,0,2.5,0,4v22.5H0
		v-33.6h4.9l8.7,16c0.4,0.7,0.7,1.4,1,2c0.3,0.6,0.5,1.1,0.6,1.6h0.1c0.2-0.5,0.4-1,0.6-1.6c0.3-0.6,0.6-1.3,1-2l8.7-15.9h4.9V197.9
		z"/>
	<path fill="#010203" d="M58,186.9H41.1c0.1,2.7,0.8,4.7,2.2,6.2c1.4,1.5,3.3,2.2,5.7,2.2c2.7,0,5.2-0.9,7.4-2.7v3.6
		c-2.1,1.5-4.9,2.3-8.4,2.3c-3.4,0-6-1.1-8-3.3c-1.9-2.2-2.9-5.2-2.9-9.2c0-3.7,1.1-6.8,3.2-9.1c2.1-2.3,4.7-3.5,7.9-3.5
		c3.1,0,5.6,1,7.3,3c1.7,2,2.6,4.8,2.6,8.4V186.9z M54.1,183.7c0-2.2-0.5-3.9-1.6-5.2c-1.1-1.2-2.5-1.8-4.4-1.8
		c-1.8,0-3.3,0.6-4.6,1.9c-1.3,1.3-2,3-2.3,5.1H54.1z"/>
	<path fill="#010203" d="M67.4,191.2c0,2.2,0.8,3.3,2.6,3.3c0.7,0,1.3-0.1,1.8-0.3v3.5c-0.3,0.1-0.7,0.2-1.2,0.2
		c-0.5,0.1-1,0.1-1.6,0.1c-0.8,0-1.5-0.1-2.2-0.4c-0.7-0.2-1.3-0.6-1.7-1.1c-0.5-0.5-0.9-1.2-1.2-1.9c-0.3-0.8-0.4-1.7-0.4-2.7
		v-29.5h3.8V191.2z"/>
	<path fill="#010203" d="M77.7,167.9c-0.7,0-1.3-0.2-1.8-0.7c-0.5-0.5-0.7-1.1-0.7-1.8c0-0.7,0.2-1.3,0.7-1.8
		c0.5-0.5,1.1-0.7,1.8-0.7c0.7,0,1.3,0.2,1.8,0.7c0.5,0.5,0.7,1.1,0.7,1.8c0,0.7-0.2,1.3-0.7,1.8C79,167.6,78.4,167.9,77.7,167.9z
		 M79.5,191.2c0,2.2,0.8,3.3,2.6,3.3c0.7,0,1.3-0.1,1.8-0.3v3.5c-0.3,0.1-0.7,0.2-1.2,0.2c-0.5,0.1-1,0.1-1.6,0.1
		c-0.8,0-1.5-0.1-2.2-0.4c-0.7-0.2-1.3-0.6-1.7-1.1c-0.5-0.5-0.9-1.2-1.2-1.9c-0.3-0.8-0.4-1.7-0.4-2.7V174h3.8V191.2z"/>
	<path fill="#010203" d="M98.1,198.5c-3.5,0-6.4-1.1-8.5-3.4c-2.1-2.2-3.2-5.2-3.2-8.9c0-4,1.1-7.2,3.3-9.4c2.2-2.3,5.2-3.4,8.9-3.4
		c3.6,0,6.4,1.1,8.4,3.3c2,2.2,3,5.2,3,9.1c0,3.8-1.1,6.9-3.2,9.2C104.6,197.3,101.7,198.5,98.1,198.5z M98.4,176.6
		c-2.5,0-4.4,0.8-5.8,2.5c-1.4,1.7-2.2,4-2.2,6.9c0,2.8,0.7,5.1,2.2,6.7c1.5,1.6,3.4,2.5,5.8,2.5c2.5,0,4.4-0.8,5.7-2.4
		c1.3-1.6,2-3.9,2-6.9c0-3-0.7-5.3-2-6.9C102.8,177.4,100.9,176.6,98.4,176.6z"/>
	<path fill="#010203" d="M128.7,177.9c-0.7-0.5-1.6-0.8-2.9-0.8c-1.6,0-3,0.8-4.1,2.3c-1.1,1.5-1.6,3.6-1.6,6.3v12.2h-3.8v-24h3.8
		v4.9h0.1c0.5-1.7,1.4-3,2.5-3.9c1.1-0.9,2.4-1.4,3.8-1.4c1,0,1.8,0.1,2.3,0.3V177.9z"/>
	<path fill="#010203" d="M150,197.9h-3.8v-3.7H146c-1.7,2.9-4.1,4.3-7.4,4.3c-2.4,0-4.3-0.6-5.6-1.9c-1.3-1.3-2-2.9-2-5
		c0-4.5,2.6-7.1,7.9-7.8l7.2-1c0-4.1-1.6-6.1-4.9-6.1c-2.9,0-5.5,1-7.8,2.9v-3.9c2.4-1.5,5.1-2.2,8.1-2.2c5.6,0,8.4,3,8.4,8.9V197.9
		z M146.1,185.8l-5.8,0.8c-1.8,0.2-3.1,0.7-4,1.3c-0.9,0.6-1.4,1.8-1.4,3.4c0,1.2,0.4,2.1,1.3,2.9c0.8,0.7,1.9,1.1,3.3,1.1
		c1.9,0,3.5-0.7,4.7-2c1.2-1.3,1.9-3,1.9-5.1V185.8z"/>
	<g>
		<g>
			<path fill-rule="evenodd" clip-rule="evenodd" fill="#010203" d="M78.3,3.2c0,0.1-0.1,0.2-0.1,0L78.3,3.2L78.3,3.2z"/>
		</g>
		<path fill-rule="evenodd" clip-rule="evenodd" fill="#010203" d="M99.1,80.4c1.4-0.7,2.7-1.4,4.1-2c2.4-1.1,4.9-2,7.6-2.3
			c2.3-0.3,4.7-0.4,7,0.6c2,0.8,3.4,2.2,4.4,4.1c0.4,0.7,0.4,0.9-0.3,1.3c-6.5,3.9-13.1,4.4-19.7,0.5C101,81.9,100,81.3,99.1,80.4z"
			/>
		<path fill-rule="evenodd" clip-rule="evenodd" fill="#010203" d="M44.8,86.9c2.2-0.1,4.6,0.3,7,0.7c0.8,0.1,0.9,0.3,0.4,0.9
			c-1.6,2.3-3.6,4.3-6,5.8c-4.6,2.8-9.5,3-14.5,1.9c-0.8-0.2-0.9-0.3-0.8-1.2c0.3-2.2,1.4-4,3.2-5.4c1.8-1.4,4-2.1,6.3-2.5
			C41.7,86.9,43.1,86.9,44.8,86.9z"/>
		<path fill-rule="evenodd" clip-rule="evenodd" fill="#010203" d="M42.2,73.4c3.2,0,6.3,0.9,9.3,2c0.6,0.2,1.3,0.5,1.9,0.8
			c0.6,0.3,0.6,0.4,0.1,0.9c-1.2,1.1-2.5,2-3.9,2.7c-4.5,2.3-9.2,2.4-13.9,0.5c-0.6-0.2-1.2-0.5-1.8-0.8c-0.7-0.4-0.8-0.6-0.5-1.4
			c0.6-1.3,1.5-2.4,2.6-3.2C37.8,73.9,39.6,73.4,42.2,73.4z"/>
		<path fill-rule="evenodd" clip-rule="evenodd" fill="#010203" d="M102.5,72.1c-2.6,0.1-5-0.5-7.4-1.6c-0.7-0.3-0.7-0.4-0.2-0.8
			c2.3-2,4.8-3.8,7.5-5.1c2.1-1,4.3-1.7,6.7-1.5c2.2,0.1,3.9,1,5.4,2.6c0.6,0.7,0.6,0.8,0,1.4c-2.8,2.8-6.1,4.5-9.9,5.1
			c-0.1,0-0.2,0-0.3,0C103.6,72.1,103,72.1,102.5,72.1z"/>
		<path fill-rule="evenodd" clip-rule="evenodd" fill="#010203" d="M37.2,61.4c-4-0.8-7.7-1.7-10.8-4.2c-2.7-2.1-3.9-4.8-3.6-8.3
			c0.1-0.9,0.3-1.1,1-1c3.4,0.4,6.4,1.7,8.8,4.2C35.1,54.6,36.5,57.7,37.2,61.4z"/>
		<path fill-rule="evenodd" clip-rule="evenodd" fill="#010203" d="M79.9,57c-0.8-1.2-1.3-2.6-1.6-4c-1.3-5.4,0.4-10.1,3.9-14.2
			c0.1-0.1,0.3-0.3,0.4-0.4c0.4-0.4,0.7-0.3,1.1,0c1.5,1.3,2.4,3,2.6,5c0.1,1.9-0.3,3.7-1,5.4c-1.1,2.8-2.8,5.2-4.6,7.5
			c-0.1,0.2-0.3,0.3-0.5,0.5C80.1,56.9,80.1,56.9,79.9,57z"/>
		<path fill-rule="evenodd" clip-rule="evenodd" fill="#010203" d="M84.7,68.5c0.5-1.1,1.2-1.9,1.9-2.7c2-2.5,4.3-4.9,7.3-6.2
			c2.3-1.1,4.7-1.2,7,0c0.2,0.1,0.3,0.2,0.5,0.3c0.8,0.5,0.8,0.7,0.3,1.5c-1.8,2.9-4.2,5.3-7.5,6.6c-2.8,1.1-5.6,1.4-8.6,0.9
			c-0.1,0-0.2-0.1-0.3-0.1C85.1,68.7,84.9,68.6,84.7,68.5z"/>
		<path fill-rule="evenodd" clip-rule="evenodd" fill="#010203" d="M107.3,47.5c0-2.9,0.6-5.7,2.2-8.2c1.5-2.4,3.6-4.1,6.1-5.3
			c0.8-0.4,0.9-0.3,1.3,0.5c1.5,3.3,0.9,6.4-1.2,9.2c-1.7,2.3-4.1,4-6.5,5.4c-0.4,0.2-0.7,0.4-1.1,0.6c-0.5,0.2-0.7,0.1-0.8-0.4
			C107.3,48.8,107.3,48.1,107.3,47.5z"/>
		<path fill-rule="evenodd" clip-rule="evenodd" fill="#010203" d="M114.3,63.4c3.2-2.5,6.4-4.6,10.3-5.4c2.4-0.5,4.8-0.2,6.8,1.6
			c1.3,1.1,1.3,1.6,0,2.6c-2.9,2.3-6.2,3.6-10,3.4c-2.3-0.1-4.5-0.8-6.6-1.9C114.6,63.8,114.5,63.6,114.3,63.4z"/>
		<path fill-rule="evenodd" clip-rule="evenodd" fill="#010203" d="M33.1,76.3c-1,1.2-2.2,2.1-3.5,2.9c-3.9,2.3-7.9,2.6-12.2,1.3
			c-0.5-0.2-1.1-0.4-1.6-0.6c-0.8-0.3-0.8-0.5-0.6-1.3c0.4-1.2,1.1-2.1,2.1-2.8c1.4-1,3-1.6,4.8-1.7c3.8-0.3,7.3,0.7,10.8,1.9
			C32.9,76.1,32.9,76.1,33.1,76.3z"/>
		<path fill-rule="evenodd" clip-rule="evenodd" fill="#010203" d="M73.8,61.6c-2.4-4-4.5-7.9-4.2-12.6c0.1-2.3,1.1-4.1,3-5.3
			c0.8-0.5,1-0.5,1.5,0.3c1.9,2.8,3,5.9,2.8,9.3C76.8,56.3,75.7,59,73.8,61.6z"/>
		<path fill-rule="evenodd" clip-rule="evenodd" fill="#010203" d="M56.3,66.8c-1.5,0.5-3,0.7-4.5,0.9c-3.2,0.3-6.4,0.4-9.3-1.3
			c-1.7-1-2.7-2.4-3.2-4.3c-0.2-0.6,0-0.8,0.6-1c3.1-0.9,6.3-1,9.4,0.1c2.6,0.9,4.7,2.6,6.5,4.6C55.9,66.1,56.2,66.3,56.3,66.8z"/>
		<path fill-rule="evenodd" clip-rule="evenodd" fill="#010203" d="M79,67.3c0.3-2.8,0.7-5.8,2.1-8.6c1.1-2,2.6-3.6,4.9-4.1
			c0.5-0.1,1.1-0.1,1.6-0.1c0.6,0,0.8,0.3,0.8,0.8c0,5.8-2.3,10.2-7.5,13.1c-0.4,0.2-0.8,0.4-1.2,0.6c-0.5,0.2-0.7,0.1-0.7-0.5
			C78.9,68.2,79,67.8,79,67.3z"/>
		<path fill-rule="evenodd" clip-rule="evenodd" fill="#010203" d="M50.9,57.1c0-0.1,0-0.2,0-0.3c0-1.3,0.1-1.3,1.4-1.2
			c2.6,0.3,4.9,1.1,7.1,2.6c2.6,1.8,4.1,4.3,5.1,7.2c0.3,0.7,0.1,1-0.7,0.9c-3.7-0.6-7.4-1.4-10.4-3.9
			C51.8,60.9,50.8,59.2,50.9,57.1z"/>
		<path fill-rule="evenodd" clip-rule="evenodd" fill="#010203" d="M40.7,84.3c-1.5,1.3-3,2.2-4.6,2.7c-4,1.4-7.8,0.8-11.4-1.3
			c-0.9-0.5-0.9-0.7-0.4-1.5c1.2-1.9,3-2.8,5.2-3c3.1-0.3,6,0.7,8.8,1.9C39.1,83.4,39.8,83.8,40.7,84.3z"/>
		<path fill-rule="evenodd" clip-rule="evenodd" fill="#010203" d="M109.6,73.4c0.3-0.5,0.8-0.9,1.3-1.3c1.5-1.3,3-2.5,4.7-3.5
			c1.5-0.9,3.2-1.5,4.9-1.6c1.8-0.1,3.4,0.5,4.7,1.8c0.5,0.4,0.4,0.8,0,1.1c-1.7,1.8-3.7,3.3-6.1,4.1c-3.1,1-6.2,0.8-9.2-0.3
			C109.9,73.7,109.7,73.6,109.6,73.4z"/>
		<path fill-rule="evenodd" clip-rule="evenodd" fill="#010203" d="M95.4,29.9c-1.7-2.1-2.8-4.3-3.2-6.8c-0.6-3.3,0.4-6.4,2-9.2
			c0.4-0.7,0.5-0.8,1.2-0.3c2,1.1,3,2.9,3.2,5.2c0.3,3-0.6,5.7-1.7,8.4C96.5,28,96.2,29,95.4,29.9z"/>
		<path fill-rule="evenodd" clip-rule="evenodd" fill="#010203" d="M53.2,49.9c-0.9-0.2-1.5-0.7-2.2-1.1c-2.5-1.4-4.7-3.1-6.4-5.4
			c-1.3-1.8-1.8-3.7-1.2-5.9c0.1-0.3,0.2-0.5,0.3-0.7c0.4-0.9,0.5-1,1.5-0.6c4.4,2,7.1,5.3,8,10.1C53.3,47.4,53.3,48.6,53.2,49.9z"
			/>
		<path fill-rule="evenodd" clip-rule="evenodd" fill="#010203" d="M121,50.8c0.8-0.1,1.6,0.1,2.3,0.5c0.7,0.3,0.8,0.5,0.5,1.3
			c-0.5,1.2-1.1,2.3-1.9,3.3c-2.7,3.5-6.3,5.3-10.7,5.3c-0.1,0-0.2,0-0.2,0c-0.9,0-0.9-0.1-0.6-0.8c0.6-1.3,1.3-2.5,2.1-3.7
			c1.1-1.7,2.4-3.2,4.1-4.4C117.9,51.4,119.3,50.8,121,50.8z"/>
		<path fill-rule="evenodd" clip-rule="evenodd" fill="#010203" d="M88.2,44.7c-1.8-4.9-1.4-9.4,1.7-13.6c0.6-0.8,1.2-1.5,2-2.2
			c0.7-0.5,0.8-0.5,1.4,0.2c1.6,1.9,1.9,4,1.2,6.4c-0.6,2.1-1.8,4-3.1,5.8C90.5,42.5,89.5,43.6,88.2,44.7z"/>
		<path fill-rule="evenodd" clip-rule="evenodd" fill="#010203" d="M35.3,26.9c0-1.9,0.5-3.4,1.7-4.6c0.5-0.5,0.7-0.6,1.2-0.1
			c2.4,2.2,4.2,4.7,4.7,8c0.4,2.4,0.2,4.8-0.7,7.1c-0.3,0.7-0.4,0.7-0.9,0.3c-2.5-2.5-4.7-5.2-5.7-8.6
			C35.4,28.2,35.4,27.4,35.3,26.9z"/>
		<path fill-rule="evenodd" clip-rule="evenodd" fill="#010203" d="M36.3,72.7c-1,0.6-2.1,0.8-3.1,0.9c-3.5,0.4-6.9-0.2-9.8-2.4
			c-1-0.8-1.8-1.7-2.7-2.6c-0.4-0.4-0.4-0.7,0-1.1c1-1,2.2-1.5,3.5-1.6c2.3-0.2,4.3,0.6,6.1,1.7c2.2,1.3,4,3,5.7,4.8
			C36.1,72.5,36.2,72.6,36.3,72.7z"/>
		<path fill-rule="evenodd" clip-rule="evenodd" fill="#010203" d="M77,44.3c-1.3-1.8-2-3.5-2.3-5.5c-0.7-3.7,0.4-7,2.5-10
			c0.5-0.8,0.7-0.8,1.4-0.2c2,1.5,2.7,3.6,2.4,6.1C80.6,38.2,79,41.3,77,44.3z"/>
		<path fill-rule="evenodd" clip-rule="evenodd" fill="#010203" d="M63.8,45.9c-0.3,0-0.6-0.2-0.8-0.4c-1.5-1.4-3.1-2.8-4.3-4.5
			c-1.1-1.5-2-3.2-2.2-5.2c-0.3-1.7,0.4-3.2,1.4-4.5c0.2-0.3,0.5-0.4,0.9-0.1c3.1,2.3,5.1,5.2,5.7,9.1c0.2,1.7,0,3.4-0.3,5.1
			C64.1,45.6,64,45.8,63.8,45.9z"/>
		<path fill-rule="evenodd" clip-rule="evenodd" fill="#010203" d="M22.2,39.1c-0.1-0.7,0.1-1.4,0.4-2.2c0.1-0.4,0.4-0.5,0.8-0.4
			c4.9,1.6,8.4,5,9.4,10.3c0.1,0.5,0.2,1,0.2,1.6c0,0.4-0.1,0.7-0.6,0.5c-3.3-1.3-6.4-2.9-8.7-5.7C22.7,42.1,22.1,40.8,22.2,39.1z"
			/>
		<path fill-rule="evenodd" clip-rule="evenodd" fill="#010203" d="M46.5,58.6c-2.2,0.1-4.4-0.1-6.5-0.9c-1.8-0.7-3.4-1.7-4.2-3.6
			c-0.1-0.3-0.3-0.6-0.3-1c-0.3-1.2-0.2-1.6,1.1-1.7c3.9-0.4,7.5,0.4,10.4,3.2c0.9,0.8,1.7,1.7,2.4,2.8c0.6,1.1,0.6,1.2-0.6,1.3
			C48.1,58.6,47.3,58.6,46.5,58.6z"/>
		<path fill-rule="evenodd" clip-rule="evenodd" fill="#010203" d="M113.6,23.7c0.4-0.1,0.5,0.2,0.7,0.5c0.8,1.5,0.9,3,0.4,4.6
			c-0.5,1.7-1.4,3.2-2.5,4.5c-1.1,1.4-2.5,2.7-3.9,3.8c-0.7,0.6-0.9,0.6-1.1-0.3c-0.8-3.7-0.2-7.2,1.9-10.3c0.6-0.9,1.4-1.7,2.2-2.4
			c0.3-0.3,0.6-0.5,1-0.5c-0.2,0.7,0,1.1,0.4,1.2c0.5,0.1,0.8-0.1,1-0.8C113.6,23.9,113.6,23.8,113.6,23.7z"/>
		<path fill-rule="evenodd" clip-rule="evenodd" fill="#010203" d="M63.7,59.3c0-1,0.3-1.9,0.9-2.8c0.4-0.6,0.5-0.6,1.1-0.3
			c2.9,1.8,5,4.2,5.8,7.7c0.3,1.4,0.2,2.7,0.2,4.1c0,0.2-0.1,0.5-0.1,0.7c-0.1,0.3-0.3,0.4-0.6,0.2c-2.4-1.7-4.6-3.5-6.1-6
			C64.2,61.8,63.8,60.6,63.7,59.3z"/>
		<path fill-rule="evenodd" clip-rule="evenodd" fill="#010203" d="M94.1,43c0.1-1,0.6-2,1.1-2.8c1.9-3.3,4.8-5.2,8.7-5.7
			c0.1,0,0.2,0,0.3,0c1.2-0.2,1.5,0.2,1.4,1.4c-0.2,2.1-1.3,3.6-3,4.7c-2.1,1.4-4.6,2-7.1,2.4C95.1,42.9,94.6,43.2,94.1,43z"/>
		<path fill-rule="evenodd" clip-rule="evenodd" fill="#010203" d="M47,50.1c-2.9,0.6-5.7,0.8-8.6,0.1c-1.6-0.4-3-1.2-3.9-2.7
			c0-0.1-0.1-0.1-0.1-0.2c-1-1.8-0.6-2.4,1.3-2.6c1.6-0.2,3.1-0.1,4.6,0.2c2.7,0.7,4.7,2.3,6.4,4.4C46.9,49.5,47,49.7,47,50.1z"/>
		<path fill-rule="evenodd" clip-rule="evenodd" fill="#010203" d="M120.1,75.3c1.2-0.8,2.4-1.3,3.7-1.8c1.9-0.8,3.9-1.2,6-1
			c1.8,0.2,3.3,0.9,4.3,2.5c0.4,0.7,0.4,0.7-0.3,1.1c-2.3,1.4-4.8,2.1-7.5,1.8C124,77.7,122,76.9,120.1,75.3z"/>
		<path fill-rule="evenodd" clip-rule="evenodd" fill="#010203" d="M64.5,75.2c-3.4,0.6-6.5,1-9.6-0.1c-1.8-0.6-3.1-1.7-3.6-3.6
			c-0.3-0.9-0.2-1.2,0.8-1.3c3.4-0.7,6.6-0.2,9.4,1.8C62.6,72.7,63.7,73.7,64.5,75.2z"/>
		<path fill-rule="evenodd" clip-rule="evenodd" fill="#010203" d="M92.4,71.2c1.4,0.1,2.7,0.5,3.7,1.5c0.6,0.5,0.6,0.7,0.1,1.2
			c-2.2,2.2-4.7,3.6-7.9,3.7c-1.6,0-3.2-0.2-4.7-0.8c-0.7-0.3-0.7-0.4-0.2-0.9c2.4-2.2,4.9-4.1,8.2-4.7
			C91.9,71.2,92.2,71.2,92.4,71.2z"/>
		<path fill-rule="evenodd" clip-rule="evenodd" fill="#010203" d="M38.9,17.2c0.1-1.5,0.6-2.9,1.8-3.9c0.3-0.3,0.6-0.4,0.9,0
			c3.2,3.7,3.7,8,1.7,12.3c-0.1,0.3-0.4,0.6-0.7,0.2c-1.9-2.5-3.5-5.2-3.8-8.5C38.9,17.3,38.9,17.2,38.9,17.2z"/>
		<path fill-rule="evenodd" clip-rule="evenodd" fill="#010203" d="M90.7,18.8c-1-0.6-1.6-1.6-2.1-2.6c-1.8-3.2-1.8-6.5-0.4-9.8
			c0.2-0.5,0.5-0.6,1-0.4c1.4,0.6,2.3,1.6,2.8,3c0.5,1.4,0.6,2.8,0.4,4.3c-0.2,1.7-0.6,3.3-1.2,5C91.1,18.5,91.1,18.7,90.7,18.8z"/>
		<path fill-rule="evenodd" clip-rule="evenodd" fill="#010203" d="M106.1,42.7c-0.1,1.6-1,3-2.5,4c-1.7,1.2-3.7,1.8-5.8,2.3
			c-0.6,0.1-1.1,0.3-1.7,0.3c-0.5,0-0.6-0.2-0.4-0.6c0.6-1.8,1.6-3.4,3-4.7c1.7-1.5,3.8-2.3,6.1-2.6
			C105.9,41.2,106.1,41.4,106.1,42.7z"/>
		<path fill-rule="evenodd" clip-rule="evenodd" fill="#010203" d="M85.6,52.3c0.6-2.3,1.7-4.2,3.5-5.7c1.5-1.2,3.2-1.9,5-2.3
			c0.8-0.2,1,0,1.2,0.8c0.2,1.4-0.3,2.7-1.2,3.8c-0.5,0.6-1.2,1.2-1.9,1.6c-1.9,1.1-3.9,1.8-6,2.3C85.7,52.9,85.6,52.7,85.6,52.3z"
			/>
		<path fill-rule="evenodd" clip-rule="evenodd" fill="#010203" d="M98.9,27c0-2.9,0.7-5.4,2.4-7.5c1.1-1.3,2.5-2.2,4-2.9
			c0.7-0.3,0.8-0.2,1.1,0.5c0.7,1.6,0.4,3.1-0.5,4.4C104.3,24.1,101.8,25.6,98.9,27z"/>
		<path fill-rule="evenodd" clip-rule="evenodd" fill="#010203" d="M37.7,36.3c-3.3-0.7-6.5-1.2-8.8-3.7c-0.9-1-1.4-2.2-1.3-3.5
			c0.1-0.8,0.1-0.9,1-0.8c2,0.2,3.8,0.8,5.3,2.1C35.8,31.8,37.1,33.7,37.7,36.3z"/>
		<path fill-rule="evenodd" clip-rule="evenodd" fill="#010203" d="M74.9,14.9c0.1-1.7,0.5-3.4,1.4-5c0.2-0.5,0.5-0.6,1-0.3
			c1.2,0.6,1.9,1.6,2.3,2.9c0.5,1.6,0.3,3.1-0.1,4.7c-0.3,1.4-0.8,2.7-1.4,4c-0.3,0.7-0.5,0.7-0.9,0.1
			C75.7,19.4,74.9,17.3,74.9,14.9z"/>
		<path fill-rule="evenodd" clip-rule="evenodd" fill="#010203" d="M57.4,20.6c0.1,1.2-0.1,2.3-0.6,3.5c-0.2,0.6-0.5,0.7-1,0.2
			c-1.6-1.9-3.1-3.9-3.8-6.4c-0.3-1.3-0.3-2.6,0.4-3.8c0.2-0.3,0.4-0.6,0.6-0.8c0.6-0.7,0.7-0.7,1.4,0
			C56.3,15.4,57.5,17.7,57.4,20.6z"/>
		<path fill-rule="evenodd" clip-rule="evenodd" fill="#010203" d="M89.1,60.8c-0.3-0.5,0-1,0.1-1.5c0.4-1.9,0.9-3.7,2-5.3
			c0.7-1.1,1.5-2,2.7-2.5c0.7-0.3,1.5-0.4,2.3-0.3c0.4,0,0.7,0.2,0.6,0.6c-0.5,4.6-3.3,7.9-7.6,9.1C89.3,60.8,89.2,60.8,89.1,60.8z"
			/>
		<path fill-rule="evenodd" clip-rule="evenodd" fill="#010203" d="M17.4,56.2c0-1.4,0.1-1.4,1.2-1.3c2.3,0.2,4.3,0.9,6,2.4
			c1.2,1.1,2.1,2.4,2.7,3.9c0.3,0.7,0.1,1-0.6,0.9c-2.6-0.3-5.1-0.8-7.2-2.4C18.2,58.7,17.5,57.5,17.4,56.2z"/>
		<path fill-rule="evenodd" clip-rule="evenodd" fill="#010203" d="M116.5,48.6c-0.3-0.6-0.2-1.1-0.1-1.6c0.6-3.9,2.9-6.6,6.6-8
			c0.7-0.3,0.9-0.2,1.1,0.5c0.6,1.6,0.2,3-0.7,4.3c-1.1,1.6-2.7,2.7-4.3,3.6C118.3,47.8,117.5,48.2,116.5,48.6z"/>
		<path fill-rule="evenodd" clip-rule="evenodd" fill="#010203" d="M105.7,49.3c-0.1,1.2-0.6,2.4-1.4,3.3c-1.5,1.7-3.4,2.7-5.4,3.6
			c-0.2,0.1-0.4,0.2-0.6,0.2c-0.9,0.3-1.1,0.2-0.9-0.8c0.3-1.9,1-3.6,2.3-5.1c1.3-1.5,2.9-2.5,4.7-3.1c0.9-0.3,1-0.2,1.3,0.7
			c0.1,0.2,0.1,0.4,0.1,0.6C105.7,49,105.7,49.1,105.7,49.3z"/>
		<path fill-rule="evenodd" clip-rule="evenodd" fill="#010203" d="M58.5,18.3c-0.4-0.7-0.6-1.4-0.7-2.2c-0.5-3.6,0.7-6.7,3.4-9.2
			c0.4-0.3,0.6-0.3,0.9,0c0.6,0.7,1.1,1.5,1.2,2.5c0.2,1.7-0.3,3.1-1.1,4.6c-0.9,1.5-1.9,2.9-3.2,4.1C58.9,18.2,58.8,18.4,58.5,18.3
			z"/>
		<path fill-rule="evenodd" clip-rule="evenodd" fill="#010203" d="M131,64c1.4-1.1,2.9-1.8,4.6-2.2c2.5-0.5,4.8,0.1,7,1.3
			c0.8,0.5,0.9,0.6,0.3,1.4c-0.8,1.1-1.8,1.7-3.1,1.8c-1.2,0.1-2.4,0.1-3.6-0.2C134.4,65.6,132.7,64.9,131,64z"/>
		<path fill-rule="evenodd" clip-rule="evenodd" fill="#010203" d="M73.5,39.2c-0.1,0.5,0.3,1.2-0.2,1.5c-0.5,0.3-1-0.3-1.5-0.6
			c-3.1-2.2-4.3-5.2-4.1-8.9c0-0.6,0.4-0.7,0.8-0.6c1.3,0.2,2.3,0.8,3,1.8c0.9,1.2,1.3,2.6,1.5,4C73.4,37.3,73.6,38.2,73.5,39.2z"/>
		<path fill-rule="evenodd" clip-rule="evenodd" fill="#010203" d="M88.3,31.1c-1-1.3-1.5-2.7-1.7-4.2c-0.3-2.5,0.3-4.7,1.7-6.8
			c0.5-0.7,0.8-0.7,1.5-0.1c1.1,1,1.5,2.2,1.5,3.6C91.1,26.4,89.8,28.7,88.3,31.1z"/>
		<path fill-rule="evenodd" clip-rule="evenodd" fill="#010203" d="M71.1,25.1c-2.5-1.8-4.2-4-4.5-7c-0.1-1.1-0.1-2.2,0.2-3.3
			c0.2-0.7,0.3-0.8,1-0.6c1,0.3,1.9,0.9,2.5,1.9c0.6,0.9,1,1.9,1,3C71.6,21,71.6,23,71.1,25.1z"/>
		<path fill-rule="evenodd" clip-rule="evenodd" fill="#010203" d="M49.6,34c0,0.7,0,1.3-0.2,1.9c-0.3,0.9-0.4,1-1.1,0.4
			c-1.1-1-2.2-2.1-3.1-3.3c-0.5-0.8-1-1.6-1.3-2.5c-0.4-1.4-0.3-2.7,0.5-3.9c0.4-0.6,0.6-0.7,1.2-0.2C48.1,28.3,49.7,30.8,49.6,34z"
			/>
		<path fill-rule="evenodd" clip-rule="evenodd" fill="#010203" d="M63.3,50.8c-1.6-0.5-3.1-1.2-4.5-2.1c-1.1-0.7-2.1-1.5-2.7-2.7
			c-0.5-0.9-0.8-1.9-0.5-2.9c0.2-0.7,0.4-0.8,1.2-0.6c1.1,0.3,2.2,0.8,3.1,1.6c2,1.6,3.2,3.8,3.5,6.4C63.5,50.5,63.4,50.6,63.3,50.8
			z"/>
		<path fill-rule="evenodd" clip-rule="evenodd" fill="#010203" d="M71.8,76.5c-1.8,2.8-4.1,4.5-7.3,4.7c-0.7,0-1.4,0-2.2-0.1
			c-0.5,0-0.7-0.3-0.6-0.9c0.3-1.4,1.1-2.4,2.3-3C66.4,76.1,69,76,71.8,76.5z"/>
		<path fill-rule="evenodd" clip-rule="evenodd" fill="#010203" d="M49.5,86c-1.3,0-2.8-0.5-4.2-1.3c-0.6-0.3-0.7-0.6-0.3-1.2
			c1-1.5,2.6-2,4.3-1.9c2,0.1,3.9,0.9,5.7,1.8c0.7,0.3,0.7,0.5,0,0.9C53.4,85.5,51.7,86,49.5,86z"/>
		<path fill-rule="evenodd" clip-rule="evenodd" fill="#010203" d="M96.1,35.8c0.1-3.4,1.4-6,4.1-7.7c0.6-0.4,1.3-0.6,1.9-1
			c0.5-0.2,0.7-0.1,0.8,0.4c0.4,1.2,0.3,2.4-0.4,3.5c-0.5,0.9-1.2,1.6-1.9,2.2C99.3,34.3,97.8,35.1,96.1,35.8z"/>
		<path fill-rule="evenodd" clip-rule="evenodd" fill="#010203" d="M43.4,71.8c-2.1,0.6-3.9,0.2-5.6-0.5c-1.7-0.7-3-1.9-3.9-3.5
			c-0.4-0.6-0.4-0.8,0.3-1.2C35,66.1,36,66,37,66.2c0.6,0.1,1.2,0.4,1.8,0.8C40.7,68.2,42.1,69.8,43.4,71.8z"/>
		<path fill-rule="evenodd" clip-rule="evenodd" fill="#010203" d="M95,77.6c2-2,3.9-3.7,6.6-4.3c1.3-0.3,2.5,0,3.6,0.8
			c0.4,0.3,0.5,0.6,0.1,1c-1.1,1.3-2.5,2.2-4.1,2.7C99.2,78.5,97.3,78.4,95,77.6z"/>
		<path fill-rule="evenodd" clip-rule="evenodd" fill="#010203" d="M73.6,72.8c-0.6-2.6-1-5.2,0-7.7c0.5-1.3,1.3-2.2,2.6-2.6
			c0.5-0.2,0.8-0.1,0.9,0.4c0.8,3.2,0.4,6.2-2,8.7c-0.3,0.4-0.7,0.7-1.1,1C74,72.7,73.8,72.7,73.6,72.8z"/>
		<path fill-rule="evenodd" clip-rule="evenodd" fill="#010203" d="M42.9,43.7c-2.6-0.2-5-0.7-7.1-2.3c-1.2-0.9-1.8-2-1.7-3.5
			c0-0.5,0.2-0.7,0.7-0.6c3.5,0.3,6.2,1.9,7.8,5.1C42.7,42.7,43,43.1,42.9,43.7z"/>
		<path fill-rule="evenodd" clip-rule="evenodd" fill="#010203" d="M103.2,62.1c0.8-2.5,1.8-4.9,3.9-6.6c1-0.8,2.1-1.2,3.4-0.9
			c0.7,0.2,0.8,0.3,0.6,1c-1,3.5-3.2,5.7-6.7,6.6c-0.2,0.1-0.5,0.1-0.7,0.1C103.5,62.3,103.4,62.3,103.2,62.1z"/>
		<path fill-rule="evenodd" clip-rule="evenodd" fill="#010203" d="M124.1,45.5c0-0.4,0.2-0.7,0.4-1c2.2-2.9,5.1-4.1,8.6-3.7
			c0.5,0,0.7,0.3,0.6,0.7c-0.1,1.1-0.6,1.9-1.5,2.6c-0.7,0.6-1.5,1-2.4,1.2c-1.6,0.4-3.3,0.6-5,0.5
			C124.6,45.8,124.3,45.8,124.1,45.5z"/>
		<path fill-rule="evenodd" clip-rule="evenodd" fill="#010203" d="M19.5,61.6c-2.5,1.2-5,1.7-7.6,1.3c-1.3-0.2-2.4-0.9-3-2.2
			c-0.3-0.5-0.2-0.8,0.3-1c2.8-1.2,5.5-1.3,8.2,0.2C18.2,60.3,18.9,60.8,19.5,61.6z"/>
		<path fill-rule="evenodd" clip-rule="evenodd" fill="#010203" d="M125.6,80.3c2.2-0.9,4.4-1.6,6.7-1.4c1.6,0.2,3,0.8,3.8,2.4
			c0.2,0.3,0.2,0.6-0.2,0.8c-3.2,1.6-7.5,1.3-10.2-1.6C125.7,80.6,125.7,80.5,125.6,80.3z"/>
		<path fill-rule="evenodd" clip-rule="evenodd" fill="#010203" d="M73.6,16.5c-0.2,0.1-0.4,0-0.6-0.1c-2.6-1.4-4.4-3.5-4.8-6.5
			c-0.1-0.6-0.2-1.2-0.2-1.8c0.1-0.7,0.2-0.9,0.9-0.8c1.7,0.3,2.8,1.3,3.5,2.8c0.6,1.3,1,2.6,1,4.1C73.6,15,73.9,15.7,73.6,16.5z"/>
		<path fill-rule="evenodd" clip-rule="evenodd" fill="#010203" d="M62.4,76.7c-1.5,2.5-3.4,4.1-6.1,4.6c-0.6,0.1-1.3,0.2-1.9,0.2
			c-1.3-0.1-1.5-0.5-1-1.7c0.3-0.6,0.7-1.2,1.2-1.6c1.3-1,2.7-1.3,4.3-1.5C60,76.6,61.1,76.7,62.4,76.7z"/>
		<path fill-rule="evenodd" clip-rule="evenodd" fill="#010203" d="M61.9,19.8c-0.1-0.9,0.1-1.8,0.5-2.6c0.3-0.6,0.7-1,1.2-1.3
			c0.7-0.5,1-0.4,1.4,0.4c1.1,2.7,1,5.3-0.6,7.8c-0.3,0.4-0.5,1.2-1.1,1.1c-0.5-0.1-0.5-0.9-0.7-1.3C62.2,22.5,61.8,21.2,61.9,19.8z
			"/>
		<path fill-rule="evenodd" clip-rule="evenodd" fill="#010203" d="M106.8,53.6c1.2-2.8,3.1-4.4,5.9-5c0.6-0.1,1.3-0.3,1.9-0.2
			c0.5,0,0.7,0.2,0.7,0.7c0,0.7-0.3,1.3-0.7,1.9c-0.5,0.6-1,1.1-1.7,1.5C111,53.3,109.1,53.5,106.8,53.6z"/>
		<path fill-rule="evenodd" clip-rule="evenodd" fill="#010203" d="M35,65.2c-1.2,0.1-2.4,0-3.6-0.4c-1.1-0.4-2-1.1-2.5-2.3
			c-0.3-0.9-0.3-1,0.6-1.1c3.1-0.6,5.6,0.4,7.6,2.7c0.2,0.2,0.6,0.5,0.4,0.9c-0.2,0.4-0.6,0.3-0.9,0.3C36.1,65.2,35.6,65.2,35,65.2z
			"/>
		<path fill-rule="evenodd" clip-rule="evenodd" fill="#010203" d="M125.1,56.8c-0.5-0.1-1.3,0.2-1.5-0.4c-0.2-0.5,0.5-1,0.8-1.4
			c1.7-2,3.9-2.9,6.5-2.8c1.2,0,1.5,0.4,1,1.6c-0.5,1.1-1.4,1.9-2.6,2.3c-0.5,0.2-1,0.4-1.5,0.4C126.9,56.6,126.1,56.8,125.1,56.8z"
			/>
		<path fill-rule="evenodd" clip-rule="evenodd" fill="#010203" d="M115.7,32.4c-0.4-1.4-0.3-2.6,0-3.8c0.5-2,1.6-3.6,3.3-4.7
			c0.5-0.3,0.7-0.3,1,0.2c0.5,0.9,0.6,1.8,0.3,2.7c-0.1,0.4-0.3,0.8-0.5,1.2C119,29.8,117.5,31.1,115.7,32.4z"/>
		<path fill-rule="evenodd" clip-rule="evenodd" fill="#010203" d="M81.8,30.3c-2.3-2-3.5-4.3-3.1-7.2c0.1-0.5,0.1-1.1,0.3-1.6
			c0.2-0.5,0.5-0.7,0.9-0.4c0.7,0.3,1.3,0.7,1.7,1.4c0.3,0.5,0.5,1.1,0.7,1.7C82.6,26.2,82.4,28.1,81.8,30.3z"/>
		<path fill-rule="evenodd" clip-rule="evenodd" fill="#010203" d="M54.9,34.1c-1.3-2.1-2.3-4.1-2.2-6.6c0-1,0.5-1.9,1.2-2.6
			c0.5-0.5,0.8-0.4,1.2,0.1C56.9,27.8,57,31.5,54.9,34.1z"/>
		<path fill-rule="evenodd" clip-rule="evenodd" fill="#010203" d="M23.3,46.5c-2.1-0.7-3.9-1.5-5.4-3c-1-1-1.4-2.1-1.2-3.5
			c0.1-0.6,0.2-0.7,0.8-0.6C20.5,40.2,23,42.7,23.3,46.5z"/>
		<path fill-rule="evenodd" clip-rule="evenodd" fill="#010203" d="M23.1,72.3c-1.4,0.6-2.8,1-4.2,1.2c-1.2,0.2-2.3,0.1-3.3-0.3
			c-0.7-0.2-1.2-0.7-1.6-1.3c-0.5-0.7-0.4-1,0.4-1.3c1.9-0.8,3.8-0.9,5.7-0.3C21.2,70.7,22.2,71.3,23.1,72.3z"/>
		<path fill-rule="evenodd" clip-rule="evenodd" fill="#010203" d="M53.6,42.2c-1.2-1.6-2.2-3.2-2.6-5.1c-0.3-1.4-0.1-2.8,1-3.9
			c0.3-0.3,0.5-0.4,0.9-0.1c2.2,2.7,2.6,5.9,1,8.8C53.9,42,53.8,42,53.6,42.2z"/>
		<path fill-rule="evenodd" clip-rule="evenodd" fill="#010203" d="M85.5,37.5c-0.6-0.3-0.9-0.8-1.3-1.3c-1.5-2.3-1.8-4.7-0.8-7.2
			c0.3-0.8,0.4-0.8,1.2-0.4c1.3,0.7,1.8,1.9,1.9,3.3C86.7,33.8,86.2,35.7,85.5,37.5z"/>
		<path fill-rule="evenodd" clip-rule="evenodd" fill="#010203" d="M82.7,15.5c-1.8-1.9-2.7-4.1-2.3-6.8c0.1-0.6,0.4-1.2,0.5-1.9
			c0.1-0.5,0.4-0.5,0.9-0.3c1.4,0.7,2,2,2.1,3.4c0.2,1.9-0.3,3.7-1,5.4C83,15.4,82.9,15.4,82.7,15.5z"/>
		<path fill-rule="evenodd" clip-rule="evenodd" fill="#010203" d="M51.3,73.8c-0.7,0.3-1.3,0-1.9-0.1c-1.4-0.3-2.8-0.7-4-1.6
			c-0.9-0.6-1.5-1.5-1.7-2.6c-0.2-0.9,0-1.1,0.9-1.1c2.6,0.2,4.6,1.5,6,3.7C50.9,72.6,51.2,73.2,51.3,73.8z"/>
		<path fill-rule="evenodd" clip-rule="evenodd" fill="#010203" d="M50.7,16.8c-0.1,1-0.3,2-0.7,3c-0.3,0.6-0.5,0.7-0.9,0.2
			c-1.3-1.6-2.2-3.5-2.4-5.6c-0.1-1.1,0.3-2.1,1.2-2.8c0.3-0.3,0.6-0.3,0.8,0C49.9,13.1,50.6,14.8,50.7,16.8z"/>
		<path fill-rule="evenodd" clip-rule="evenodd" fill="#010203" d="M85.5,22.5c-0.8-0.9-1.2-1.9-1.6-3c-0.6-2-0.2-3.8,0.7-5.6
			c0.4-0.8,0.6-0.8,1.3-0.3c0.8,0.7,1.3,1.6,1.3,2.7C87.3,18.2,86.6,20.6,85.5,22.5z"/>
		<path fill-rule="evenodd" clip-rule="evenodd" fill="#010203" d="M49.1,27.9c-1.7-1.8-3.2-3.5-3.6-5.9c-0.2-1,0.1-1.9,0.8-2.7
			c0.3-0.3,0.6-0.4,0.9-0.1C49.5,21.3,50.6,24.8,49.1,27.9z"/>
		<path fill-rule="evenodd" clip-rule="evenodd" fill="#010203" d="M24.1,63.3c-2.1,1.7-3.9,3.4-6.6,3.3c-0.3,0-0.5,0-0.8-0.1
			c-0.7-0.2-1.5-0.5-1.6-1.1c-0.1-0.6,0.6-1,1.1-1.3C18.6,62.4,21.1,62,24.1,63.3z"/>
		<path fill-rule="evenodd" clip-rule="evenodd" fill="#010203" d="M69.7,44.8c-1.8-1.4-3.3-3-4-5.2c-0.3-1-0.2-2,0.3-3
			c0.2-0.4,0.5-0.6,0.9-0.2C69.4,38.3,70.9,41.5,69.7,44.8z"/>
		<path fill-rule="evenodd" clip-rule="evenodd" fill="#010203" d="M75.4,26.6c0,2.6-0.7,4.1-1.4,5.7c-0.3,0.6-0.5,0.6-0.8,0.1
			c-1.3-1.9-1.7-4-1.1-6.3c0.2-0.7,0.4-1.3,0.8-1.9c0.3-0.6,0.6-0.6,1.1-0.2C74.9,24.7,75.4,25.8,75.4,26.6z"/>
		<path fill-rule="evenodd" clip-rule="evenodd" fill="#010203" d="M63.6,34.3c-1.8-2-3.6-3.8-3.5-6.7c0-0.8,0.3-1.4,0.8-2
			c0.2-0.3,0.5-0.3,0.8-0.1c1.4,1.3,2.4,2.9,2.6,4.8C64.3,31.6,64.3,32.9,63.6,34.3z"/>
		<path fill-rule="evenodd" clip-rule="evenodd" fill="#010203" d="M61.8,58.6c-1.6-1.3-2.9-2.7-3.6-4.6c-0.4-1.1-0.4-2.2,0.2-3.3
			c0.4-0.6,0.6-0.7,1.1-0.2c2,1.8,3.1,4.1,2.7,6.8C62.1,57.7,62.2,58.1,61.8,58.6z"/>
		<path fill-rule="evenodd" clip-rule="evenodd" fill="#010203" d="M104.1,28.3c0.1-2.9,1.4-5,3.8-6.4c0.6-0.4,0.8-0.3,1.1,0.4
			c0.4,1.1,0.2,2.1-0.3,3.1c-0.9,1.6-2.3,2.7-3.8,3.7C104.3,29.4,104.1,29.2,104.1,28.3z"/>
		<path fill-rule="evenodd" clip-rule="evenodd" fill="#010203" d="M22,53.8c-2.3,0.1-4.3-0.2-6.1-1.3c-0.9-0.5-1.3-1.4-1.6-2.4
			c-0.1-0.5,0.1-0.8,0.7-0.8c1.8,0,3.5,0.4,4.9,1.6C20.7,51.6,21.6,52.4,22,53.8z"/>
		<path fill-rule="evenodd" clip-rule="evenodd" fill="#010203" d="M125.7,67c1.9-0.9,3.6-1.6,5.6-1.5c1.2,0.1,2.1,0.5,2.8,1.5
			c0.2,0.3,0.4,0.6,0,0.9C131.7,69.3,128,69.3,125.7,67z"/>
		<path fill-rule="evenodd" clip-rule="evenodd" fill="#010203" d="M55.6,55c-2.3-0.2-4.4-0.6-6.2-2.1c-0.6-0.5-1-1.3-1-2.1
			c0-0.7,0.1-0.8,0.7-0.8c2,0.1,3.7,0.9,5.1,2.4C55.2,53.3,55.4,53.9,55.6,55z"/>
		<path fill-rule="evenodd" clip-rule="evenodd" fill="#010203" d="M119.2,38.9c0.2-3.3,2.6-5.5,5.3-6.3c0.4-0.1,0.7,0,0.8,0.5
			c0.3,1.2-0.2,2.1-0.9,2.9c-1,1.2-2.4,1.9-3.8,2.5C120.3,38.7,119.8,38.9,119.2,38.9z"/>
		<path fill-rule="evenodd" clip-rule="evenodd" fill="#010203" d="M120,48.9c2.6-2,5.2-2.4,8-1.1c0.8,0.4,0.9,0.8,0.3,1.5
			c-0.7,0.8-1.6,1.1-2.6,1.2C123.7,50.5,121.9,49.8,120,48.9z"/>
		<path fill-rule="evenodd" clip-rule="evenodd" fill="#010203" d="M33.1,40c-2.1-0.4-3.9-1.1-5.4-2.6c-0.8-0.8-1.1-1.7-0.9-2.8
			c0-0.4,0.2-0.5,0.6-0.5C30.2,34.3,32.9,37,33.1,40L33.1,40z"/>
		<path fill-rule="evenodd" clip-rule="evenodd" fill="#010203" d="M34.2,28.6c-2-0.6-3.8-1.5-5.1-3.2c-0.5-0.7-0.6-1.4-0.5-2.3
			c0.1-0.3,0.2-0.6,0.6-0.5C31.7,23,34.2,25.9,34.2,28.6z"/>
		<path fill-rule="evenodd" clip-rule="evenodd" fill="#010203" d="M11.8,66.8c1.3-0.1,2.5,0.4,3.5,1c0.6,0.4,0.6,0.6,0,0.9
			c-1.4,0.6-2.8,1.1-4.3,1c-0.9,0-1.6-0.3-2.2-0.9c-0.7-0.7-0.7-1.1,0.2-1.5C9.9,67,10.8,66.7,11.8,66.8z"/>
		<path fill-rule="evenodd" clip-rule="evenodd" fill="#010203" d="M138.9,42.7c-0.2,0.9-0.6,1.7-1.3,2.3c-1.2,1-2.6,1.5-4,1.8
			c-0.8,0.2-1-0.1-0.7-0.8c0.9-2.4,2.8-3.6,5.2-4.1C138.7,41.7,139,42.1,138.9,42.7z"/>
		<path fill-rule="evenodd" clip-rule="evenodd" fill="#010203" d="M135.2,74.6c1.6-0.5,3.2-0.2,4.7,0.2c0.9,0.3,1.6,0.8,2,1.7
			c0.4,0.9,0.2,1.2-0.7,1.2c-2.2,0.2-4.1-0.5-5.6-2.2C135.5,75.3,135.3,75.1,135.2,74.6z"/>
		<path fill-rule="evenodd" clip-rule="evenodd" fill="#010203" d="M139.4,56.8c-0.1,0.6-0.5,1.3-1.1,1.9c-1.2,1.1-2.7,1.5-4.2,1.9
			c-0.5,0.1-0.6-0.1-0.5-0.6c0.6-1.8,1.7-3.1,3.4-3.9c0.4-0.2,0.9-0.3,1.4-0.5C139.3,55.5,139.5,55.7,139.4,56.8z"/>
		<path fill-rule="evenodd" clip-rule="evenodd" fill="#010203" d="M129.4,51.2c0.5-1.3,1.4-1.9,2.3-2.4c1.3-0.8,2.7-0.8,4.2-0.7
			c0.4,0,0.6,0.3,0.5,0.7c-0.1,0.6-0.5,1.1-1,1.5c-0.6,0.5-1.3,0.7-2.1,0.9C132.1,51.4,130.8,51.3,129.4,51.2z"/>
		<path fill-rule="evenodd" clip-rule="evenodd" fill="#010203" d="M11.5,65.4c-1.8,0-3.4,0.2-5-0.4c-1.1-0.4-1.9-1-2.2-2.1
			c-0.1-0.4-0.1-0.7,0.4-0.7c2.6-0.3,4.8,0.4,6.4,2.5C11.2,64.9,11.3,65.1,11.5,65.4z"/>
		<path fill-rule="evenodd" clip-rule="evenodd" fill="#010203" d="M67.4,50.4c-1.2-1.4-2-2.8-2.3-4.5c-0.1-0.8,0.1-1.6,0.6-2.2
			c0.4-0.5,0.6-0.5,1-0.1C68.4,45.3,68.7,48.2,67.4,50.4z"/>
		<path fill-rule="evenodd" clip-rule="evenodd" fill="#010203" d="M68.1,56c-1.5-0.9-2.8-2-3.4-3.7c-0.1-0.3-0.3-0.7-0.2-1.1
			c0.1-0.5,0.1-1.1,0.6-1.4c0.5-0.2,0.8,0.3,1.2,0.5c1.5,1.2,2.2,2.9,2.3,4.8c0,0.2,0,0.4-0.1,0.6C68.4,55.8,68.3,55.9,68.1,56z"/>
		<path fill-rule="evenodd" clip-rule="evenodd" fill="#010203" d="M76.5,6.5c-0.1,1.7-1,3.2-2,4.5c-0.3,0.4-0.6,0.3-0.7-0.2
			c-0.4-1.2-0.5-2.4-0.2-3.7c0.3-0.9,0.6-1.7,1.3-2.4c0.4-0.5,0.7-0.5,1.1,0.1C76.3,5.2,76.6,5.8,76.5,6.5z"/>
		<path fill-rule="evenodd" clip-rule="evenodd" fill="#010203" d="M56.6,13.8c-1.4-0.9-2.6-1.9-3.3-3.2c-0.5-0.8-0.6-1.6-0.3-2.5
			c0.2-0.7,0.5-0.8,1.1-0.4c1.6,1,2.5,2.5,2.7,4.4C56.7,12.6,56.7,13.2,56.6,13.8z"/>
		<path fill-rule="evenodd" clip-rule="evenodd" fill="#010203" d="M72.4,18.8c0.1-0.4-0.2-0.9,0.3-1.2c0.5-0.3,1,0.1,1.5,0.4
			c0.5,0.4,0.7,0.9,0.9,1.4c0.4,1,0.5,2.1,0.5,3.2c0,0.3,0,0.6-0.2,0.7c-0.3,0.2-0.6-0.1-0.8-0.2C73.1,22,72.4,20.6,72.4,18.8z"/>
		<path fill-rule="evenodd" clip-rule="evenodd" fill="#010203" d="M60.8,22c0.1,1.4-0.4,2.5-1.1,3.5c-0.2,0.3-0.5,0.5-0.7,0
			c-0.6-1.5-1.1-3.1-0.5-4.7c0.2-0.5,0.5-0.9,0.9-1.2c0.4-0.2,0.7-0.2,0.9,0.3C60.6,20.5,60.8,21.3,60.8,22z"/>
		<path fill-rule="evenodd" clip-rule="evenodd" fill="#010203" d="M34,24.5c-0.8-1.2-1.7-2.5-1.7-4.2c0-0.2,0-0.3,0-0.5
			c0.1-0.7,0.2-1.5,1-1.6c0.7-0.1,0.9,0.7,1.1,1.2c0.7,1.5,0.8,3,0.1,4.5C34.4,24.2,34.3,24.5,34,24.5z"/>
		<path fill-rule="evenodd" clip-rule="evenodd" fill="#010203" d="M98.9,14.9c-1.5-1.5-2.1-3.1-1.8-5c0-0.2,0.1-0.4,0.1-0.5
			c0.3-1.1,0.6-1,1.4-0.4c0.7,0.5,0.9,1.3,0.9,2.1C99.6,12.3,99.4,13.5,98.9,14.9z"/>
		<path fill-rule="evenodd" clip-rule="evenodd" fill="#010203" d="M82.5,21.6c-0.7-0.3-1-0.8-1.3-1.3c-0.8-1.2-1.1-2.6-0.6-4
			c0.2-0.6,0.4-0.7,1-0.4c0.8,0.5,1.2,1.3,1.3,2.2C83,19.3,82.9,20.4,82.5,21.6z"/>
		<path fill-rule="evenodd" clip-rule="evenodd" fill="#010203" d="M50.3,22.2c0.1-0.7,0.3-1.4,0.8-1.9c0.3-0.3,0.6-0.3,0.9,0.1
			c1,1.2,1.1,4.1,0.2,5.4c-0.2,0.3-0.4,0.3-0.6,0C50.8,24.6,50.4,23.5,50.3,22.2z"/>
		<path fill-rule="evenodd" clip-rule="evenodd" fill="#010203" d="M110.2,22.1c0-1.6,0.6-2.9,1.8-4c0.7-0.6,1-0.4,1.3,0.4
			c0.2,0.9-0.1,1.6-0.5,2.4c-0.4,0.8-1.1,1.4-1.7,2c-0.2,0.2-0.4,0.4-0.7,0.3c-0.3-0.1-0.2-0.5-0.2-0.7
			C110.2,22.4,110.2,22.3,110.2,22.1z"/>
		<path fill-rule="evenodd" clip-rule="evenodd" fill="#010203" d="M17,46c0-0.9,0.4-1.2,1.1-0.8c1.7,0.8,2.6,2.1,2.9,3.9
			c0.1,0.5-0.1,0.8-0.5,0.6c-1.5-0.7-2.8-1.5-3.4-3.1C17.1,46.3,17,46.1,17,46z"/>
		<path fill-rule="evenodd" clip-rule="evenodd" fill="#010203" d="M136.7,78c1.2,0.4,2.5,0.8,3.5,1.9c0.1,0.1,0.2,0.2,0.3,0.4
			c0.2,0.5,0.6,1.1,0.2,1.6c-0.4,0.5-0.9,0-1.4-0.1c-1.5-0.5-2.6-1.6-3.1-3.1C135.9,78.2,136.1,78,136.7,78z"/>
		<path fill-rule="evenodd" clip-rule="evenodd" fill="#010203" d="M10,71.4c1.5,0.1,3.6,1.9,3.9,3.4c0.1,0.5,0,0.7-0.5,0.5
			c-1.1-0.3-2.2-0.7-3.2-1.5c-0.5-0.4-0.8-1-1-1.6C9.1,71.6,9.4,71.3,10,71.4z"/>
		<path fill-rule="evenodd" clip-rule="evenodd" fill="#010203" d="M21.6,31.6c1.8,0,3.7,2.1,4,4c0.1,0.6-0.1,0.7-0.7,0.5
			c-0.8-0.4-1.6-0.8-2.3-1.4C21.6,33.8,21.3,33,21.6,31.6z"/>
		<path fill-rule="evenodd" clip-rule="evenodd" fill="#010203" d="M119,34.8c-0.5-0.6-0.4-1.3-0.3-1.9c0.1-1.4,0.7-2.5,1.7-3.5
			c0.4-0.4,0.7-0.3,1,0.2c0.3,0.6,0.3,1.2,0.1,1.9C121.1,32.9,120.2,33.9,119,34.8z"/>
		<path fill-rule="evenodd" clip-rule="evenodd" fill="#010203" d="M133.4,57.2c-0.5-2.2,1-4.1,2.5-5c0.6-0.4,0.9-0.2,1,0.5
			c0.1,0.5,0,1.1-0.2,1.5C135.9,55.6,134.8,56.4,133.4,57.2z"/>
		<path fill-rule="evenodd" clip-rule="evenodd" fill="#010203" d="M64.4,11.9c0.2-1,0.2-1.9,0.8-2.8c0.3-0.5,0.6-0.5,1-0.1
			c0.5,0.6,0.8,1.4,0.6,2.2c-0.2,1-0.5,2-1,2.9c-0.3,0.5-0.5,0.5-0.8,0C64.7,13.5,64.6,12.7,64.4,11.9z"/>
		<path fill-rule="evenodd" clip-rule="evenodd" fill="#010203" d="M125.9,41.3c-0.8-1.8-0.4-4,0.9-5.3c0.4-0.4,0.6-0.4,1,0.1
			c0.2,0.3,0.2,0.6,0.3,1C128.1,38.5,127.2,40.3,125.9,41.3z"/>
		<path fill-rule="evenodd" clip-rule="evenodd" fill="#010203" d="M16.2,58.1c-1.5-0.8-2.6-1.8-3.2-3.2c-0.1-0.2-0.1-0.4-0.2-0.5
			c0-0.5-0.1-1,0.3-1.2c0.4-0.3,0.8,0.2,1.1,0.5C15.6,54.7,16.5,56.1,16.2,58.1z"/>
		<path fill-rule="evenodd" clip-rule="evenodd" fill="#010203" d="M77.8,6.5c-0.1-1,0.2-1.8,0.6-2.5c0.2-0.4,0.5-0.4,0.8-0.1
			c0.3,0.3,0.5,0.7,0.6,1.2c0.2,1.3-0.2,2.5-0.7,3.6c-0.3,0.5-0.5,0.5-0.8,0C78,8,77.7,7.3,77.8,6.5z"/>
		<path fill-rule="evenodd" clip-rule="evenodd" fill="#010203" d="M56.1,52.2c-1-1.2-1.7-2.5-1.5-4.1c0-0.3,0.1-0.5,0.3-0.7
			c0.3-0.5,0.5-0.5,0.9-0.1C56.8,48.5,57,50.7,56.1,52.2z"/>
		<path fill-rule="evenodd" clip-rule="evenodd" fill="#010203" d="M85.4,27.5c-1.2-0.5-1.7-1.5-2-2.5c-0.2-0.5-0.3-1.1-0.1-1.7
			c0.1-0.5,0.4-0.6,0.8-0.4c0.4,0.2,0.7,0.4,0.9,0.8C85.5,25,85.8,26.2,85.4,27.5z"/>
		<path fill-rule="evenodd" clip-rule="evenodd" fill="#010203" d="M70.7,29.8c-1.7-0.9-2.5-2.7-2.2-4.3c0.1-0.5,0.4-0.5,0.8-0.4
			c0.6,0.3,0.9,0.7,1.1,1.3C70.7,27.5,70.9,28.6,70.7,29.8z"/>
		<path fill-rule="evenodd" clip-rule="evenodd" fill="#010203" d="M137.8,54.8c-0.2-1.6,1.2-3.3,2.6-3.8c0.5-0.2,0.7,0,0.8,0.5
			c0,0.3-0.1,0.7-0.2,1C140.3,53.7,139.1,54.3,137.8,54.8z"/>
		<path fill-rule="evenodd" clip-rule="evenodd" fill="#010203" d="M134.8,41.8c0.4-1.8,1.3-3,2.9-3.7c0.6-0.2,0.9,0,0.8,0.6
			c-0.1,0.6-0.4,1.1-0.8,1.6C137,41,136,41.6,134.8,41.8z"/>
		<path fill-rule="evenodd" clip-rule="evenodd" fill="#010203" d="M65.5,30.3c-0.7-1.2-0.8-2.5-0.6-3.8c0-0.2,0.2-0.4,0.3-0.6
			c0.2-0.3,0.4-0.6,0.8-0.5c0.3,0.1,0.4,0.4,0.5,0.7C67,27.6,66.7,29.3,65.5,30.3z"/>
		<path fill-rule="evenodd" clip-rule="evenodd" fill="#010203" d="M141.6,78.9c1,0.1,1.9,0.4,2.8,1c0.4,0.3,0.6,0.7,0.8,1.2
			c0.1,0.4-0.1,0.7-0.5,0.6c-1.5-0.2-2.8-0.8-3.5-2.2C140.9,79.1,141,78.9,141.6,78.9z"/>
		<path fill-rule="evenodd" clip-rule="evenodd" fill="#010203" d="M126.2,29.5c0,0.3-0.2,0.6-0.4,0.9c-0.7,0.9-1.7,1.4-2.8,1.6
			c-0.5,0.1-0.7-0.1-0.5-0.6c0.6-1.4,1.6-2.3,3-2.6C126.1,28.7,126.2,28.9,126.2,29.5z"/>
		<path fill-rule="evenodd" clip-rule="evenodd" fill="#010203" d="M50.8,32.7c-0.7-1.2-0.9-2.4-0.8-3.7c0-0.1,0-0.1,0.1-0.2
			c0.2-0.6,0.8-1.3,1.1-1.2c0.6,0.2,0.6,0.8,0.6,1.2C52,30.3,51.9,31.6,50.8,32.7z"/>
		<path fill-rule="evenodd" clip-rule="evenodd" fill="#010203" d="M9.2,74.5C8,74.4,7,74.2,6.1,73.7C5.5,73.4,5,73,4.8,72.3
			c-0.2-0.6-0.1-0.7,0.5-0.7c1.3,0,2.3,0.7,3.1,1.6C8.7,73.6,9,74,9.2,74.5z"/>
		<path fill-rule="evenodd" clip-rule="evenodd" fill="#010203" d="M12.5,46.9c0.1-0.3,0.1-0.7,0.3-0.9c1.2,0,2.3,0.2,3.2,0.9
			c0.1,0.1,0.3,0.2,0.4,0.3c0.3,0.3,0.6,0.6,0.5,0.9c-0.1,0.4-0.6,0.2-0.9,0.2C14.6,48.3,13.4,48.1,12.5,46.9z"/>
		<path fill-rule="evenodd" clip-rule="evenodd" fill="#010203" d="M105.8,30.1c0.3,0,0.5,0.2,0.4,0.6c-0.1,0.6-0.3,1.1-0.8,1.5
			c-0.7,0.5-1.4,0.9-2.2,1.2c-0.5,0.1-0.7,0-0.6-0.4C103,31.7,104.6,30.2,105.8,30.1z"/>
		<path fill-rule="evenodd" clip-rule="evenodd" fill="#010203" d="M36.1,43.5c-1.1,0.1-2,0.1-2.9-0.3c-0.6-0.2-1-0.6-1.3-1.2
			c-0.2-0.4,0-0.7,0.5-0.8C33.7,41.1,35.4,42.1,36.1,43.5z"/>
		<path fill-rule="evenodd" clip-rule="evenodd" fill="#010203" d="M77.2,4.3c-1-0.6-1.6-2-1.3-3.2c0.1-0.4,0-1,0.6-1
			c0.6,0,0.8,0.5,1,1C77.8,2.1,77.7,3.2,77.2,4.3z"/>
		<path fill-rule="evenodd" clip-rule="evenodd" fill="#010203" d="M56.2,6.8c0-0.2,0.1-0.5,0.2-0.7c0.1-0.4,0-0.9,0.4-1
			c0.5-0.1,0.8,0.4,1,0.8c0.4,1.1,0.3,2.2,0,3.3c-0.1,0.4-0.4,0.2-0.6,0C56.6,8.6,56.4,7.8,56.2,6.8z"/>
		<path fill-rule="evenodd" clip-rule="evenodd" fill="#010203" d="M76,25.3c0-0.6,0.2-1.2,0.5-1.7c0.2-0.4,0.5-0.3,0.7,0
			c0.2,0.3,0.3,0.7,0.4,1.1c0,0.8-0.3,1.5-0.6,2.2c-0.1,0.1-0.2,0.3-0.3,0.3c-0.2,0-0.4-0.2-0.4-0.3C76.2,26.3,76,25.8,76,25.3z"/>
		<path fill-rule="evenodd" clip-rule="evenodd" fill="#010203" d="M59,29.8c-1.1-0.9-1.8-1.8-1.7-3.1c0-0.3,0.1-0.6,0.4-0.6
			c0.3-0.1,0.4,0.2,0.5,0.3C58.9,27.4,59.4,28.3,59,29.8z"/>
		<path fill-rule="evenodd" clip-rule="evenodd" fill="#010203" d="M67.1,35c-1.1-0.3-1.9-1.2-1.9-2.3c0-0.3,0.2-0.4,0.4-0.3
			c0.3,0,0.5,0.2,0.7,0.4C66.7,33.5,67,34.2,67.1,35z"/>
		<path fill-rule="evenodd" clip-rule="evenodd" fill="#010203" d="M113.6,23.7c0,0.1,0,0.2,0,0.3c-0.1,0.7-0.5,0.9-1,0.8
			c-0.4-0.1-0.5-0.5-0.4-1.2c0.1-0.1,0.2-0.2,0.2-0.3C113,23.2,113.3,23.5,113.6,23.7L113.6,23.7z"/>
		<path fill-rule="evenodd" clip-rule="evenodd" fill="#010203" d="M84.5,92.9c3.7,2.4,7.1,5,9.4,8.6c0.9,1.4,1.4,2.9,1.6,4.5
			c0.2,1.7-0.3,3.2-1.2,4.6c-0.4,0.6-0.7,0.7-1.3,0.3c-4.8-2.8-8-6.7-8.7-12.3C84.1,96.7,84,94.8,84.5,92.9z"/>
		<path fill-rule="evenodd" clip-rule="evenodd" fill="#010203" d="M43.1,103c0.5,5.3-0.4,10-4.2,13.8c-1.3,1.3-2.8,2.2-4.4,2.9
			c-0.7,0.3-0.8,0.3-1.2-0.4c-1.2-2.5-1.2-5-0.1-7.5c0.8-1.9,2.1-3.5,3.7-4.8c1.5-1.3,3.2-2.4,4.9-3.4
			C42.2,103.5,42.6,103.3,43.1,103z"/>
		<path fill-rule="evenodd" clip-rule="evenodd" fill="#010203" d="M127.2,103.2c0,0.5,0,0.9-0.1,1.4c0,0.6-0.3,0.8-0.9,0.8
			c-1.6-0.1-3.2-0.6-4.7-1.2c-3.4-1.5-5.7-4.1-7.2-7.4c-0.6-1.2-1-2.5-1.3-3.8c-0.2-0.8,0-1,0.7-0.8c3.3,0.7,6.5,1.6,9.3,3.6
			c2,1.4,3.5,3.2,4,5.7C127.2,102.1,127.1,102.7,127.2,103.2z"/>
		<path fill-rule="evenodd" clip-rule="evenodd" fill="#010203" d="M73.8,87.2c0.8,2.1,1.4,4.2,1.7,6.4c0.3,1.9,0.3,3.8-0.2,5.7
			c-0.6,2.1-1.9,3.7-4,4.5c-0.7,0.3-0.8,0.3-1.1-0.4C67.8,97.9,68.7,92,73,87.7C73.2,87.5,73.4,87.2,73.8,87.2z"/>
		<path fill-rule="evenodd" clip-rule="evenodd" fill="#010203" d="M94.3,94.7c-6.1-0.4-10.8-4.3-12.5-9.7c-0.2-0.7-0.1-0.9,0.7-0.8
			c3.6,0.5,7,1.3,10,3.5c1.7,1.3,2.8,3,3,5.1c0,0.3,0,0.6,0,0.9C95.4,94.7,95.4,94.7,94.3,94.7z"/>
		<path fill-rule="evenodd" clip-rule="evenodd" fill="#010203" d="M76.7,99.5c0.1-1.4,0.2-2.8,0.7-4.2c0.1-0.5,0.4-0.5,0.7-0.2
			c2.7,2.5,5.3,5.1,6.4,8.8c0.7,2.2,0.4,4.2-0.9,6c-0.6,0.8-0.6,0.9-1.5,0.2C78.7,107.4,76.8,103.8,76.7,99.5z"/>
		<path fill-rule="evenodd" clip-rule="evenodd" fill="#010203" d="M101.3,85.8c2.4,0.2,4.8,0.4,6.8,1.9c1.2,0.9,1.8,2.1,2.2,3.5
			c0.2,0.5,0,0.8-0.5,0.9c-1.9,0.4-3.7,0.8-5.7,0.6c-2.5-0.3-4.6-1.1-6.6-2.6c-1-0.7-1.9-1.6-2.7-2.6c-0.4-0.6-0.4-0.7,0.3-0.9
			c1.3-0.3,2.7-0.5,4-0.6C99.9,85.9,100.6,85.8,101.3,85.8z"/>
		<path fill-rule="evenodd" clip-rule="evenodd" fill="#010203" d="M59.2,92.5c-0.6,2-1.6,3.7-2.9,5.1c-2.3,2.6-5.1,4-8.5,4.4
			c-0.6,0.1-1.1,0.2-1.7,0.2c-0.7,0-0.8-0.1-0.9-0.9c-0.1-1.8,0.5-3.3,1.7-4.6c1.5-1.7,3.6-2.6,5.7-3.2
			C54.7,92.9,56.8,92.6,59.2,92.5z"/>
		<path fill-rule="evenodd" clip-rule="evenodd" fill="#010203" d="M108.2,115.5c0.4,0.1,0.6,0.5,0.9,0.8c2,2.1,3.8,4.3,4.9,7.1
			c0.6,1.6,1.1,3.2,0.6,4.9c-0.3,1.1-0.8,2.1-1.6,3c-0.4,0.4-0.6,0.4-1,0.1c-1.3-1.1-2.4-2.4-3.2-3.9c-2.1-3.8-2.1-7.7-0.6-11.6
			C108,115.6,108.1,115.6,108.2,115.5z"/>
		<path fill-rule="evenodd" clip-rule="evenodd" fill="#010203" d="M45.2,109.6c0.1-2.2,1.2-4,2.8-5.3c1.4-1.1,2.9-1.9,4.6-2.5
			c1.5-0.5,2.9-1,4.5-1.3c0.8-0.2,0.9-0.1,0.7,0.7c-1,5-5.1,9.2-10.2,10.2c-0.5,0.1-1,0.2-1.5,0.3c-0.4,0.1-0.7-0.1-0.8-0.6
			C45.3,110.5,45.2,110.1,45.2,109.6z"/>
		<path fill-rule="evenodd" clip-rule="evenodd" fill="#010203" d="M58,132.4c0,3-0.9,5.4-2.2,7.7c-0.3,0.5-0.6,0.5-1,0.3
			c-1.7-0.9-2.7-2.3-3.2-4.2c-0.4-1.6-0.3-3.2,0.1-4.7c0.5-2.4,1.4-4.7,2.5-6.8c0.3-0.6,0.5-0.7,1-0.1c1.3,1.7,2.2,3.5,2.6,5.6
			C57.9,131,58.1,131.9,58,132.4z"/>
		<path fill-rule="evenodd" clip-rule="evenodd" fill="#010203" d="M61.7,109.1c0.5,0.7,0.6,1.3,0.8,2c1.2,4.9,0.1,9.1-3.4,12.8
			c-0.3,0.3-0.6,0.6-0.9,0.9c-0.7,0.7-0.8,0.7-1.4-0.1c-1.6-1.7-1.8-3.7-1.4-5.8c0.4-2.3,1.7-4.1,3-5.9
			C59.4,111.5,60.6,110.4,61.7,109.1z"/>
		<path fill-rule="evenodd" clip-rule="evenodd" fill="#010203" d="M96.9,103.5c1.4,0.7,2.7,1.5,4,2.3c1.9,1.3,3.6,2.8,4.8,4.8
			c1.2,2,1.5,4,0.6,6.2c-0.3,0.8-0.6,0.9-1.3,0.5c-5.5-2.5-8.7-7.5-8.2-13.5C96.8,103.8,96.8,103.8,96.9,103.5z"/>
		<path fill-rule="evenodd" clip-rule="evenodd" fill="#010203" d="M101.4,93.8c2.3-0.1,4.5,0.1,6.6,0.9c1.4,0.5,2.6,1.2,3.6,2.3
			c0.8,0.9,1.2,1.9,1.4,3.1c0.1,0.9,0,1-0.9,1.2c0,0-0.1,0-0.1,0c-5.6,0.6-10.2-1.3-13.4-6.1c0-0.1-0.1-0.1-0.1-0.2
			c-0.6-1-0.5-1.2,0.7-1.2C99.8,93.7,100.6,93.8,101.4,93.8z"/>
		<path fill-rule="evenodd" clip-rule="evenodd" fill="#010203" d="M118.7,85.5c2.4-0.8,4.7-1.3,7.1-1.5c2.2-0.1,4.4,0.2,6.3,1.5
			c1,0.7,1.7,1.7,2.1,2.8c0.3,0.8,0.3,0.9-0.6,1.2c-1,0.4-2,0.7-3.1,0.8c-4.6,0.5-8.5-1-11.6-4.4C118.8,85.8,118.8,85.6,118.7,85.5z
			"/>
		<path fill-rule="evenodd" clip-rule="evenodd" fill="#010203" d="M43.2,119.6c0.1,4.9-2,8.3-5.5,11c-0.8,0.6-1,0.5-1.5-0.3
			c-1.5-2.4-1.2-4.8,0-7.1c0.6-1.2,1.4-2.3,2.3-3.3c1.1-1.2,2.3-2.4,3.6-3.4c0.5-0.4,0.7-0.3,0.8,0.3
			C43.2,117.7,43.2,118.8,43.2,119.6z"/>
		<path fill-rule="evenodd" clip-rule="evenodd" fill="#010203" d="M86.2,107.2c2.4,1.9,4.5,4,6.1,6.6c0.7,1.2,1.2,2.5,1.3,3.9
			c0.2,1.5-0.3,2.9-1.2,4.1c-0.5,0.7-0.7,0.7-1.4,0.2c-1.7-1.4-3.2-2.9-4.2-4.9c-0.9-1.7-1.3-3.6-1.3-5.5
			C85.4,110.1,85.6,108.7,86.2,107.2z"/>
		<path fill-rule="evenodd" clip-rule="evenodd" fill="#010203" d="M117.3,104.2c3.2,1.3,6.2,2.7,8.6,5.2c1.4,1.5,2.2,3.2,2,5.3
			c0,0.2,0,0.3,0,0.5c-0.2,1.6-0.6,1.8-2.1,1.2c-4.3-1.7-7.2-4.7-8.3-9.4c-0.1-0.7-0.2-1.3-0.3-2
			C117.1,104.8,117.1,104.6,117.3,104.2z"/>
		<path fill-rule="evenodd" clip-rule="evenodd" fill="#010203" d="M73.1,109.5c1.1,1.6,1.9,3.3,2.2,5.1c0.8,3.8-0.2,7.2-2.3,10.3
			c-0.5,0.8-0.8,0.8-1.6,0.2c-1.3-1-2-2.3-2.3-3.9c-0.2-1.6,0-3.2,0.5-4.7C70.4,114,71.6,111.7,73.1,109.5z"/>
		<path fill-rule="evenodd" clip-rule="evenodd" fill="#010203" d="M35.6,98.6c-1.9,4.1-4.8,6.8-9.1,7.9c-1.3,0.3-2.7,0.3-4.1,0.3
			c-0.8,0-0.9-0.2-0.8-1c0.2-2.7,1.8-4.4,4.1-5.6C28.2,99,32.7,98.3,35.6,98.6z"/>
		<path fill-rule="evenodd" clip-rule="evenodd" fill="#010203" d="M44.5,118.1c0.1-2.1,1.3-3.6,2.9-4.7c1-0.7,2.1-1.1,3.2-1.5
			c1.4-0.5,2.8-0.8,4.2-1c1.1-0.2,1.2,0,0.9,1c-1.6,4.2-4.7,6.7-9.1,7.4c-0.1,0-0.3,0.1-0.4,0.1C44.7,119.7,44.5,119.6,44.5,118.1z"
			/>
		<path fill-rule="evenodd" clip-rule="evenodd" fill="#010203" d="M107.9,102.7c1.7,0.1,3.3,0.2,4.8,0.8c1.3,0.5,2.3,1.4,3,2.7
			c0.2,0.3,0.3,0.5,0.3,0.8c0.3,1,0.1,1.3-0.9,1.5c-4.8,0.9-8.7-0.5-11.7-4.3c-0.1-0.1-0.1-0.2-0.2-0.3c-0.4-0.6-0.3-0.8,0.4-0.9
			c1-0.1,2-0.3,3-0.3C107.1,102.8,107.5,102.8,107.9,102.7z"/>
		<path fill-rule="evenodd" clip-rule="evenodd" fill="#010203" d="M67.4,82.9c-1.4,2.2-2.9,4.1-4.9,5.7c-0.7,0.6-1.5,1-2.3,1.4
			c-1.6,0.6-3.3,0.6-4.8-0.2c-0.8-0.4-0.8-0.5-0.4-1.2c2.4-3.9,5.9-6,10.6-5.9C66.1,82.6,66.6,82.7,67.4,82.9z"/>
		<path fill-rule="evenodd" clip-rule="evenodd" fill="#010203" d="M75.3,84.8c0-0.5,0.1-1.6,0.4-2.6c0.1-0.6,0.4-0.7,0.8-0.3
			c2,1.9,4.1,3.8,5.2,6.4c0.8,1.9,1,3.7-0.1,5.6c-0.1,0.2-0.3,0.4-0.5,0.6c-0.3,0.4-0.6,0.4-1,0.1C77.1,92.2,75.3,89.2,75.3,84.8z"
			/>
		<path fill-rule="evenodd" clip-rule="evenodd" fill="#010203" d="M107.1,127.2c2,2.5,3.6,5.1,4,8.2c0.2,1.7-0.3,3.2-1.4,4.4
			c-0.7,0.7-1,0.7-1.6-0.1c-1.6-2.2-2.7-4.6-2.6-7.4C105.5,130.7,106.1,128.6,107.1,127.2z"/>
		<path fill-rule="evenodd" clip-rule="evenodd" fill="#010203" d="M59.3,134.7c2.1,2.1,3.4,4.4,3.6,7.2c0.1,1.7-0.1,3.4-0.8,5
			c-0.4,0.9-0.7,1-1.5,0.6c-1.6-0.8-2.5-2.3-2.7-4C57.4,140.6,58.1,137.7,59.3,134.7z"/>
		<path fill-rule="evenodd" clip-rule="evenodd" fill="#010203" d="M113.3,117.3c2.6,0.5,5.4,1.2,7.6,3.2c1,0.9,1.5,2.1,1.6,3.4
			c0,0.3,0,0.6-0.1,0.9c-0.1,0.4-0.3,0.5-0.7,0.5c-4.2-0.5-7.5-2.6-9.1-6.9c-0.1-0.1-0.1-0.3-0.1-0.4
			C112.4,117.4,112.6,117.2,113.3,117.3z"/>
		<path fill-rule="evenodd" clip-rule="evenodd" fill="#010203" d="M51.1,126.8c0.2,2.1-0.2,3.8-1,5.5c-1.1,2.2-2.8,3.7-5,4.7
			c-0.9,0.4-1.1,0.4-1.5-0.7c-0.4-1.4-0.2-2.8,0.5-4c0.7-1.1,1.5-2,2.6-2.9C48,128.5,49.4,127.6,51.1,126.8z"/>
		<path fill-rule="evenodd" clip-rule="evenodd" fill="#010203" d="M72.5,132.1c0.7,0.4,1,1.1,1.4,1.8c1.8,3.3,1.7,6.7,0,10
			c-0.2,0.5-0.5,0.5-1,0.3c-1.7-0.9-2.4-2.5-2.5-4.3c-0.1-2,0.4-3.9,1.1-5.7C71.7,133.4,71.9,132.7,72.5,132.1z"/>
		<path fill-rule="evenodd" clip-rule="evenodd" fill="#010203" d="M92.6,132.5c-0.1-1,0.2-2.2,0.7-3.4c0.2-0.6,0.4-0.6,0.8-0.2
			c1.8,1.9,3.4,4,4,6.6c0.4,1.5,0.2,3-0.7,4.2c-0.6,0.9-0.9,0.9-1.7,0.1C93.7,138,92.6,135.7,92.6,132.5z"/>
		<path fill-rule="evenodd" clip-rule="evenodd" fill="#010203" d="M33.8,105.1c-0.1,1.7-0.3,3.1-0.9,4.4c-1.1,2.6-3.1,4.3-5.7,5.4
			c-0.9,0.4-1.2,0.2-1.4-0.7c-0.5-1.9,0.2-3.4,1.4-4.8c1.1-1.3,2.6-2.3,4.1-3C32.1,105.9,32.9,105.5,33.8,105.1z"/>
		<path fill-rule="evenodd" clip-rule="evenodd" fill="#010203" d="M122.4,91.2c1.8,0.1,3.4,0.4,5,0.9c1.2,0.4,2.3,0.9,3.2,1.6
			c1.2,1,2,2.2,2,3.8c0,0.9-0.1,1-1,0.9c-3-0.2-5.6-1.4-7.5-3.8C123.4,93.7,122.7,92.6,122.4,91.2z"/>
		<path fill-rule="evenodd" clip-rule="evenodd" fill="#010203" d="M76.3,138.6c0-1.2,0.1-1.3,1.1-0.7c1.1,0.6,2.2,1.4,3.2,2.2
			c1,0.8,1.8,1.7,2.4,2.7c0.8,1.4,1.1,2.9,0.3,4.4c-0.3,0.6-0.4,0.7-1.1,0.4c-3.2-1.6-5.3-4-5.8-7.6C76.4,139.5,76.2,139,76.3,138.6
			z"/>
		<path fill-rule="evenodd" clip-rule="evenodd" fill="#010203" d="M58.9,130.2c-0.1-0.8,0.1-1.5,0.3-2.1c0.4-1.6,1.2-3,2-4.4
			c0.6-0.9,0.7-0.9,1.2,0c1.4,2.6,1.6,5.3,0.4,8.1c-0.3,0.8-0.7,1.5-1.2,2.2c-0.3,0.5-0.6,0.5-1,0.2c-1-0.8-1.6-1.8-1.7-3.1
			C58.9,130.7,58.9,130.4,58.9,130.2z"/>
		<path fill-rule="evenodd" clip-rule="evenodd" fill="#010203" d="M101,116.6c2.1,1.5,3.8,3.3,4.8,5.7c0.6,1.5,0.7,2.9-0.2,4.3
			c-0.4,0.7-0.7,0.8-1.3,0.3c-2.7-2.2-4.1-5-3.9-8.5c0-0.3,0-0.5,0.1-0.8C100.6,117.3,100.6,117,101,116.6z"/>
		<path fill-rule="evenodd" clip-rule="evenodd" fill="#010203" d="M85.2,117.6c0,1.5-0.3,2.8-1.1,4c-0.4,0.6-1,1-1.6,1.3
			c-0.6,0.3-0.8,0.2-1.1-0.4c-1.5-3.6-0.9-7.3,1.8-10.2c0.6-0.6,0.7-0.6,1,0.2C84.7,114.1,85.1,115.9,85.2,117.6z"/>
		<path fill-rule="evenodd" clip-rule="evenodd" fill="#010203" d="M86.5,127.4c1.3,2.6,2.3,5.1,2.1,7.9c-0.1,1.3-0.8,2.4-1.9,3.2
			c-0.7,0.5-0.9,0.5-1.3-0.3c-1.4-2.7-1.8-5.4-0.6-8.3C85.2,129.1,85.5,128.2,86.5,127.4z"/>
		<path fill-rule="evenodd" clip-rule="evenodd" fill="#010203" d="M72,105c0.8,4.5-1.2,7.7-4.4,9.8c-0.7,0.4-0.9,0.3-1.3-0.4
			c-0.4-0.9-0.5-1.8-0.2-2.8c0.2-0.6,0.4-1.2,0.7-1.7C68.1,107.8,69.9,106.3,72,105z"/>
		<path fill-rule="evenodd" clip-rule="evenodd" fill="#010203" d="M46.8,125c0.1-1.1,0.5-2.1,1.2-2.9c1.4-1.7,3.3-2.8,5.4-3.7
			c0.5-0.2,0.7-0.1,0.6,0.5c-0.4,3.7-2.2,6.4-5.7,7.8c-1,0.4-1.1,0.3-1.3-0.7C47,125.6,46.9,125.2,46.8,125z"/>
		<path fill-rule="evenodd" clip-rule="evenodd" fill="#010203" d="M73.2,78.5c0.7,1.2,0.7,2.5,0.5,3.6c-0.3,2.6-1.5,4.7-3.6,6.3
			c-0.5,0.4-0.8,0.3-1-0.2c-0.6-1-0.9-1.9-0.7-3.1c0.3-1.3,0.9-2.5,1.7-3.6C71,80.5,72.1,79.5,73.2,78.5z"/>
		<path fill-rule="evenodd" clip-rule="evenodd" fill="#010203" d="M100.7,101.2c0,1-0.1,1-1,0.9c-1.7-0.2-3.3-0.6-4.7-1.7
			c-1.3-1-2.4-2.2-3-3.8c-0.3-0.7-0.2-0.9,0.5-0.9c2.3,0.2,4.5,0.7,6.4,2.1C100,98.7,100.7,100,100.7,101.2z"/>
		<path fill-rule="evenodd" clip-rule="evenodd" fill="#010203" d="M64.4,100.1c0.1,2.3-0.6,4.1-1.9,5.7c-1,1.3-2.4,2.2-3.9,2.8
			c-0.8,0.3-1,0.2-1.2-0.6c-0.2-0.9-0.2-1.7,0.2-2.6c0.5-1,1.1-1.9,2.1-2.7C61.1,101.7,62.5,100.8,64.4,100.1z"/>
		<path fill-rule="evenodd" clip-rule="evenodd" fill="#010203" d="M130.5,91.8c1.9-0.8,3.7-1.4,5.7-1.5c0.8,0,1.6,0,2.4,0.3
			c1.2,0.4,2.1,1,2.6,2.2c0.2,0.4,0.1,0.6-0.3,0.8C137.6,95.2,133.6,94.9,130.5,91.8z"/>
		<path fill-rule="evenodd" clip-rule="evenodd" fill="#010203" d="M107.1,109.8c0.8-0.3,1.5,0,2.2,0.1c2.1,0.4,4.2,1,5.7,2.7
			c0.7,0.7,1,1.6,1,2.6c0,0.8-0.1,0.9-0.9,0.8c-1.9-0.2-3.7-0.7-5.1-1.9C108.6,113,107.5,111.7,107.1,109.8z"/>
		<path fill-rule="evenodd" clip-rule="evenodd" fill="#010203" d="M26.3,108.1c-1.6,2.8-3.7,4.4-6.7,4.9c-0.9,0.1-1.8,0.3-2.7,0
			c-0.7-0.2-0.8-0.2-0.6-0.9c0.4-1.6,1.4-2.6,2.9-3.2c1.6-0.7,3.2-0.8,4.9-0.7C24.8,108.1,25.4,108.1,26.3,108.1z"/>
		<path fill-rule="evenodd" clip-rule="evenodd" fill="#010203" d="M91.4,134.8c0.8,2.4,1.2,4.9,0.6,7.4c-0.3,1.3-1.2,2.2-2.4,2.7
			c-0.4,0.2-0.7,0.2-0.9-0.3c-1.3-3.5-0.4-7.2,2.3-9.7C91.1,134.9,91.2,134.9,91.4,134.8z"/>
		<path fill-rule="evenodd" clip-rule="evenodd" fill="#010203" d="M78.7,131.7c0-0.3,0-0.9,0-1.4c0-0.7,0.2-0.8,0.8-0.4
			c1.9,1.3,3.2,3.1,3.6,5.4c0.2,0.9,0.2,1.8,0,2.7c-0.2,0.7-0.2,0.7-0.9,0.5c-1.1-0.3-2-0.9-2.5-2C78.9,135.1,78.7,133.5,78.7,131.7
			z"/>
		<path fill-rule="evenodd" clip-rule="evenodd" fill="#010203" d="M67.6,128c0-1.4,0.2-2.6,0.5-3.7c0.1-0.6,0.4-0.7,0.8-0.3
			c1.5,1.4,2.4,3.2,2.6,5.3c0.1,0.9-0.1,1.8-0.3,2.7c-0.2,0.7-0.5,0.9-1.2,0.5c-0.9-0.4-1.6-1.1-1.9-2.1
			C67.8,129.6,67.5,128.7,67.6,128z"/>
		<path fill-rule="evenodd" clip-rule="evenodd" fill="#010203" d="M34.5,123.5c0.1,2.8-1.3,4.8-3.4,6.4c-0.5,0.4-0.7,0.4-1.1-0.2
			c-0.7-1.2-0.5-2.3,0-3.5c0.8-1.8,2.2-3.2,3.9-4.4c0.4-0.3,0.6-0.2,0.7,0.3C34.6,122.5,34.5,123,34.5,123.5z"/>
		<path fill-rule="evenodd" clip-rule="evenodd" fill="#010203" d="M126.8,107c2.1,0.7,4.1,1.6,5.6,3.3c0.8,0.9,1.2,1.9,1,3
			c-0.1,0.8-0.4,1-1.2,0.7c-2.7-1-4.6-2.8-5.3-5.6C126.8,107.9,126.6,107.6,126.8,107z"/>
		<path fill-rule="evenodd" clip-rule="evenodd" fill="#010203" d="M95.1,119.3c1.2,2.1,2.3,4.1,2.1,6.6c-0.1,1.2-0.6,2-1.4,2.7
			c-0.3,0.3-0.6,0.3-0.8-0.1C93.1,125.6,93,121.9,95.1,119.3z"/>
		<path fill-rule="evenodd" clip-rule="evenodd" fill="#010203" d="M99.1,117.7c0.1,0.6-0.3,1.5-1,2.3c-0.5,0.5-0.7,0.5-1.2,0
			c-1.8-2.1-2.3-5.7-1.1-8.1c0.4-0.7,0.6-0.8,1-0.1C98,113.5,99.1,115.2,99.1,117.7z"/>
		<path fill-rule="evenodd" clip-rule="evenodd" fill="#010203" d="M64.5,116.4c0.5,0,0.6,0.3,0.8,0.5c1.9,2.3,2.3,4.9,1.4,7.8
			c-0.3,0.9-0.6,1-1.4,0.5c-1.2-0.8-1.7-2-1.8-3.4C63.4,119.9,63.9,118.1,64.5,116.4z"/>
		<path fill-rule="evenodd" clip-rule="evenodd" fill="#010203" d="M99.3,136.7c0.1-1.2,0.3-2.3,0.8-3.3c0.2-0.5,0.4-0.5,0.7-0.1
			c1.2,1.7,2.3,3.4,2.5,5.5c0.1,1.1-0.3,2.1-1,2.9c-0.4,0.4-0.7,0.4-1,0c-0.8-1.1-1.5-2.2-1.7-3.5C99.4,137.7,99.4,137.2,99.3,136.7
			z"/>
		<path fill-rule="evenodd" clip-rule="evenodd" fill="#010203" d="M76.4,120.8c2.3,2.8,2.3,6.1,0.9,8.7c-0.4,0.7-0.6,0.7-1.2,0.2
			c-0.9-0.7-1.3-1.7-1.4-2.8C74.6,124.8,75.4,122.9,76.4,120.8z"/>
		<path fill-rule="evenodd" clip-rule="evenodd" fill="#010203" d="M66.5,136.4c0,1.2-0.5,2.4-1,3.6c-0.2,0.5-0.6,0.5-1,0.2
			c-1.2-0.8-1.5-1.9-1.6-3.2c-0.1-1.2,0.3-2.3,0.7-3.4c0.2-0.6,0.5-1.2,0.8-1.8c0.3-0.6,0.5-0.6,0.8-0.1
			C65.9,133.2,66.5,134.6,66.5,136.4z"/>
		<path fill-rule="evenodd" clip-rule="evenodd" fill="#010203" d="M79.2,108.9c1.4,2.2,1.8,4.5,0.9,6.9c-0.3,0.7-0.6,1.3-1,1.9
			c-0.3,0.4-0.5,0.4-0.9,0.1c-1-0.8-1.3-1.9-1.3-3.1C76.8,113.1,78,110.3,79.2,108.9z"/>
		<path fill-rule="evenodd" clip-rule="evenodd" fill="#010203" d="M67.3,138.3c1.1,0.9,1.8,2.2,2.2,3.6c0.4,1.6,0.3,3.2-0.3,4.8
			c-0.3,0.8-0.6,0.8-1.3,0.4c-0.9-0.7-1.5-1.5-1.7-2.6c-0.2-2.1,0-4.1,0.9-6C67.1,138.4,67.2,138.4,67.3,138.3z"/>
		<path fill-rule="evenodd" clip-rule="evenodd" fill="#010203" d="M86.5,119.1c1.7,1.7,3.2,3.5,3.5,5.9c0.1,0.9-0.1,1.7-0.6,2.5
			c-0.4,0.5-0.6,0.6-1.1,0.2C86,125.6,85,122.1,86.5,119.1z"/>
		<path fill-rule="evenodd" clip-rule="evenodd" fill="#010203" d="M100.9,125.6c0.9,0.6,1.5,1.4,2.1,2.2c0.7,1,1.3,2.1,1.6,3.4
			c0.2,1-0.1,1.9-0.7,2.8c-0.3,0.5-0.6,0.5-1,0.1C100.9,132.4,99.3,128.9,100.9,125.6z"/>
		<path fill-rule="evenodd" clip-rule="evenodd" fill="#010203" d="M67.1,98.3c0.5,0.3,0.7,0.8,0.9,1.2c1.2,2.6,0.8,5-0.6,7.3
			c-0.3,0.4-0.6,0.5-0.9,0.2c-0.8-0.6-1.2-1.5-1.3-2.5c-0.1-0.8,0.1-1.6,0.3-2.4C65.7,100.8,66.3,99.5,67.1,98.3z"/>
		<path fill-rule="evenodd" clip-rule="evenodd" fill="#010203" d="M128.2,99.6c0.7-0.3,1.5,0.1,2.2,0.1c1.2,0.1,2.4,0.4,3.5,1
			c1,0.6,1.7,1.4,1.9,2.6c0.1,0.4,0.1,0.7-0.4,0.7c-3,0.3-6.2-1.5-7.2-4.3C128.1,99.7,128.1,99.6,128.2,99.6z"/>
		<path fill-rule="evenodd" clip-rule="evenodd" fill="#010203" d="M45.8,124.5c0.5,2.8-0.9,5.8-3.6,7.3c-0.6,0.3-0.9,0.2-1.1-0.4
			c-0.3-0.8-0.3-1.6,0.1-2.3c0.4-1,1-1.8,1.7-2.5C43.7,125.8,44.6,125.1,45.8,124.5z"/>
		<path fill-rule="evenodd" clip-rule="evenodd" fill="#010203" d="M30.8,114.8c0.1,1.1-0.3,1.9-0.7,2.6c-1,1.9-2.5,3.1-4.5,3.7
			c-0.7,0.2-0.9,0.1-0.9-0.6c-0.1-1.1,0.2-2,1-2.8C27,116.2,28.8,115.4,30.8,114.8z"/>
		<path fill-rule="evenodd" clip-rule="evenodd" fill="#010203" d="M122.5,119.3c-2.7-0.6-4.8-2.3-5.6-5c-0.2-0.7,0-0.9,0.7-0.7
			c1.5,0.4,2.9,1,4.2,1.9c1,0.8,1.6,1.8,1.5,3.1C123.2,119.2,123.1,119.3,122.5,119.3z"/>
		<path fill-rule="evenodd" clip-rule="evenodd" fill="#010203" d="M74.2,107.3c-0.1-1.3,0.4-2.6,0.8-3.9c0.2-0.6,0.4-0.6,0.9-0.1
			c1.9,2.3,2,5.1,1.1,7.5c-0.3,0.7-0.5,0.7-1.1,0.3c-1-0.6-1.4-1.7-1.6-2.8C74.2,108,74.2,107.6,74.2,107.3z"/>
		<path fill-rule="evenodd" clip-rule="evenodd" fill="#010203" d="M67.1,85.7c0.4,0.8,0.5,1.5,0.5,2.3c-0.1,2.1-0.9,3.8-2.4,5.2
			c-0.8,0.7-1.1,0.6-1.6-0.4c-0.4-0.9-0.4-1.8,0-2.7C64.2,88.4,65.6,87.1,67.1,85.7z"/>
		<path fill-rule="evenodd" clip-rule="evenodd" fill="#010203" d="M50.2,135c0.5,3-0.2,5.3-2.6,7c-0.7,0.5-1.1,0.4-1.3-0.4
			c-0.3-0.9-0.2-1.7,0.2-2.5C47.2,137.4,48.6,136.2,50.2,135z"/>
		<path fill-rule="evenodd" clip-rule="evenodd" fill="#010203" d="M115.9,124.8c1.9,0.7,3.7,1.4,5,3.1c0.4,0.6,0.6,1.3,0.6,2
			c-0.1,0.7-0.3,0.9-1,0.7c-2.3-0.8-3.8-2.3-4.5-4.7C115.9,125.6,115.7,125.2,115.9,124.8z"/>
		<path fill-rule="evenodd" clip-rule="evenodd" fill="#010203" d="M138.6,87.9c1.8-0.2,3.5-0.2,5.1,0.4c1,0.3,1.7,0.9,2.1,1.9
			c0.2,0.5,0,0.8-0.5,0.9C142.4,91.6,139.3,90,138.6,87.9z"/>
		<path fill-rule="evenodd" clip-rule="evenodd" fill="#010203" d="M20.8,102.7c-1.5,2.2-3.4,3.1-5.9,3.1c-0.5,0-1.1,0-1.3-0.5
			c-0.2-0.5,0.2-0.9,0.5-1.3c0.6-0.7,1.3-1.1,2.2-1.3C17.7,102.4,19.2,102.2,20.8,102.7z"/>
		<path fill-rule="evenodd" clip-rule="evenodd" fill="#010203" d="M134.1,84.9c1.7-0.9,3.4-1.4,5.3-1.2c0.9,0.1,1.6,0.4,2.1,1.2
			c0.4,0.5,0.3,0.7-0.3,1.1C138.9,87.1,136,86.8,134.1,84.9z"/>
		<path fill-rule="evenodd" clip-rule="evenodd" fill="#010203" d="M75.9,142.5c0.9,1.7,1,3.2,0.4,4.7c-0.3,0.8-0.7,1.5-1.3,2.1
			c-0.3,0.3-0.5,0.3-0.8,0c-0.5-0.6-0.8-1.3-0.7-2.1C73.8,145.5,74.6,144,75.9,142.5z"/>
		<path fill-rule="evenodd" clip-rule="evenodd" fill="#010203" d="M93.4,139.5c1.7,1.1,3,2.2,3.7,4c0.1,0.2,0.1,0.4,0.1,0.7
			c0,0.6,0.1,1.3-0.5,1.6c-0.5,0.3-0.9-0.3-1.3-0.7C93.8,143.7,93.1,141.9,93.4,139.5z"/>
		<path fill-rule="evenodd" clip-rule="evenodd" fill="#010203" d="M90.9,127.5c0.7,1.4,1,2.9,0.9,4.4c-0.1,0.8-0.4,1.5-1,2
			c-0.5,0.4-0.8,0.3-1-0.2C88.7,131.4,89.4,128.8,90.9,127.5z"/>
		<path fill-rule="evenodd" clip-rule="evenodd" fill="#010203" d="M77.5,136.3c-1,0-1.7-0.5-2.1-1.3c-0.8-1.3-0.8-2.8-0.7-4.3
			c0-0.5,0.4-0.4,0.6-0.2c1.3,0.9,2,2.1,2.3,3.7C77.7,134.8,77.7,135.5,77.5,136.3z"/>
		<path fill-rule="evenodd" clip-rule="evenodd" fill="#010203" d="M68.1,92.1c0.7,2-0.6,4.7-2.5,5.8c-0.3,0.1-0.4,0.1-0.5-0.2
			c-0.2-0.5-0.5-1-0.3-1.6C65.3,94.3,66.5,93.1,68.1,92.1z"/>
		<path fill-rule="evenodd" clip-rule="evenodd" fill="#010203" d="M115,131.5c0.2-0.8,0.2-1.6,0.6-2.3c0.2-0.3,0.4-0.4,0.6-0.1
			c0.9,1.3,1.6,2.7,1.5,4.3c0,0.2,0,0.5-0.1,0.7c-0.2,0.5-0.4,1-0.9,1.1c-0.4,0-0.6-0.5-0.8-0.9C115.4,133.4,115.2,132.5,115,131.5z
			"/>
		<path fill-rule="evenodd" clip-rule="evenodd" fill="#010203" d="M51.2,139c2,1.6,2.1,4.1,1.5,5.8c-0.2,0.6-0.5,0.7-1,0.3
			c-0.8-0.6-1.1-1.5-1.2-2.5C50.5,141.4,50.7,140.2,51.2,139z"/>
		<path fill-rule="evenodd" clip-rule="evenodd" fill="#010203" d="M98.3,127.2c0.9,1.3,1.4,2.6,1.4,4.1c0,0.4-0.1,0.7-0.3,1.1
			c-0.2,0.4-0.4,0.9-0.9,0.9c-0.4,0-0.5-0.5-0.7-0.8c-0.7-1.4-0.8-2.8-0.3-4.2C97.7,128,97.8,127.6,98.3,127.2z"/>
		<path fill-rule="evenodd" clip-rule="evenodd" fill="#010203" d="M67.6,132.1c1.8,1.3,2.6,3.7,2,5.5c-0.2,0.5-0.4,0.6-0.8,0.3
			c-0.6-0.3-1.1-0.9-1.3-1.5C67,135.1,67.2,133.7,67.6,132.1z"/>
		<path fill-rule="evenodd" clip-rule="evenodd" fill="#010203" d="M129.1,103.5c1.4,0.6,2.7,1.3,3.5,2.6c0.2,0.3,0.3,0.5,0.4,0.8
			c0.2,0.5,0.2,1-0.2,1.4c-0.4,0.3-0.8-0.1-1.1-0.3C130,107.2,128.9,105.3,129.1,103.5z"/>
		<path fill-rule="evenodd" clip-rule="evenodd" fill="#010203" d="M31.2,118.8c0.5,2.1,0.1,3.9-1.2,5.4c-0.2,0.3-0.5,0.6-0.8,0.5
			c-0.4-0.1-0.5-0.5-0.6-0.9c-0.3-0.7-0.1-1.3,0.2-1.9C29.2,120.7,30,119.7,31.2,118.8z"/>
		<path fill-rule="evenodd" clip-rule="evenodd" fill="#010203" d="M39.6,130.4c0.6,1.4,0.2,2.6-0.4,3.8c-0.3,0.6-0.8,1.2-1.4,1.6
			c-0.5,0.3-0.8,0.2-1-0.4c-0.2-0.6-0.2-1.3,0.1-1.9C37.5,132.2,38.4,131.3,39.6,130.4z"/>
		<path fill-rule="evenodd" clip-rule="evenodd" fill="#010203" d="M128.5,120.9c0,0.9-0.2,1.1-0.9,0.7c-1.6-0.7-2.7-1.8-3.1-3.5
			c-0.1-0.3-0.2-0.5,0-0.7c0.2-0.2,0.5,0,0.7,0.1c1,0.4,1.9,0.9,2.6,1.8C128.3,119.7,128.6,120.3,128.5,120.9z"/>
		<path fill-rule="evenodd" clip-rule="evenodd" fill="#010203" d="M84.1,138.9c1.2,1,2.1,2,2.5,3.3c0.2,0.6,0.2,1.2,0,1.8
			c-0.3,0.6-0.6,0.7-1.1,0.2c-1.2-1.3-2-2.8-1.5-4.6C84,139.5,84,139.3,84.1,138.9z"/>
		<path fill-rule="evenodd" clip-rule="evenodd" fill="#010203" d="M24.1,112.4c0.8,1.6,0.5,3-0.1,4.4c-0.2,0.4-0.4,0.7-0.7,1
			c-0.4,0.4-0.6,0.4-0.9-0.1c-0.4-0.6-0.5-1.3-0.3-2C22.4,114.6,23,113.5,24.1,112.4z"/>
		<path fill-rule="evenodd" clip-rule="evenodd" fill="#010203" d="M133.8,95.3c1.4,0.8,2.4,1.7,3.1,3.1c0.3,0.5,0.3,1,0.2,1.5
			c-0.1,0.5-0.4,0.6-0.9,0.3C134.6,99.4,133.6,97.3,133.8,95.3z"/>
		<path fill-rule="evenodd" clip-rule="evenodd" fill="#010203" d="M62.3,91.3c0.4,2.1-0.2,3.7-1.7,5c-0.5,0.4-0.7,0.4-0.9-0.2
			c-0.2-0.5-0.2-0.9-0.1-1.4C59.9,93.4,60.8,92.2,62.3,91.3z"/>
		<path fill-rule="evenodd" clip-rule="evenodd" fill="#010203" d="M98.5,140.1c1.1,0.9,1.8,2,2.3,3.3c0.2,0.6,0.1,1.2-0.2,1.7
			c-0.2,0.3-0.4,0.4-0.7,0.1C98.5,144.1,97.7,141.6,98.5,140.1z"/>
		<path fill-rule="evenodd" clip-rule="evenodd" fill="#010203" d="M63.9,106c0.8,0.4,0.9,1,1.2,1.6c0.5,1.1,0.4,2.2,0,3.2
			c-0.2,0.5-0.4,0.5-0.9,0.2c-0.6-0.5-0.9-1.1-0.9-1.9C63.2,108.1,63.4,107.1,63.9,106z"/>
		<path fill-rule="evenodd" clip-rule="evenodd" fill="#010203" d="M83.3,125.9c0-1,0.3-1.8,0.8-2.5c0.2-0.3,0.5-0.3,0.6,0.1
			c0.5,1.2,0.8,2.4,0.4,3.7c-0.1,0.2-0.2,0.5-0.4,0.7c-0.5,0.4-0.8,0.4-1-0.2C83.4,127,83.3,126.4,83.3,125.9z"/>
		<path fill-rule="evenodd" clip-rule="evenodd" fill="#010203" d="M64.7,126.3c1.7,0.5,2.4,3,2.2,4.2c-0.1,0.5-0.4,0.5-0.7,0.4
			c-0.7-0.2-1.1-0.8-1.3-1.5C64.5,128.4,64.6,127.4,64.7,126.3z"/>
		<path fill-rule="evenodd" clip-rule="evenodd" fill="#010203" d="M133.9,104.9c0.9,0.1,1.8,0.2,2.7,0.7c0.3,0.2,0.5,0.3,0.7,0.6
			c0.2,0.3,0.4,0.6,0.3,0.9c-0.2,0.4-0.6,0.3-0.9,0.3c-1.3-0.1-2.4-0.5-3.3-1.6c-0.2-0.2-0.4-0.4-0.3-0.7
			C133.3,104.9,133.6,105,133.9,104.9z"/>
		<path fill-rule="evenodd" clip-rule="evenodd" fill="#010203" d="M99.2,120.6c0.7,1.3,0.9,2.4,0.8,3.6c0,0.2-0.1,0.4-0.1,0.5
			c-0.2,0.4-0.5,1-1,1c-0.4,0-0.5-0.6-0.6-1C98,123.3,98,121.9,99.2,120.6z"/>
		<path fill-rule="evenodd" clip-rule="evenodd" fill="#010203" d="M79.5,125.2c0-0.2-0.3-0.8,0.2-1c0.4-0.2,0.7,0.4,1,0.8
			c0.8,0.9,1.1,2,1,3.2c-0.1,0.7-0.4,0.8-1,0.4c-0.7-0.5-1.1-1.2-1.2-2.1C79.4,126.1,79.5,125.8,79.5,125.2z"/>
		<path fill-rule="evenodd" clip-rule="evenodd" fill="#010203" d="M24,124.1c0-0.5,0.4-0.9,0.9-1.4c0.7-0.5,1.5-0.8,2.2-1.1
			c0.2-0.1,0.4-0.1,0.5,0c0.2,0.2,0,0.3,0,0.5c-0.5,1.4-1.6,2.3-3,2.7C24.2,125.1,24,124.9,24,124.1z"/>
		<path fill-rule="evenodd" clip-rule="evenodd" fill="#010203" d="M11.8,115.8c-0.3-1-0.1-1.7,0.6-2.4c0.6-0.6,1.2-1,2-1.3
			c0.2-0.1,0.4-0.2,0.6-0.1c0.2,0.2,0.1,0.5,0.1,0.7c-0.3,0.9-0.8,1.7-1.6,2.3C13,115.4,12.5,115.7,11.8,115.8z"/>
		<path fill-rule="evenodd" clip-rule="evenodd" fill="#010203" d="M142.3,92.2c1.2-0.2,2.2,0.1,3.1,0.6c0.4,0.2,0.7,0.5,1,0.9
			c0.2,0.3,0.2,0.6,0.1,0.9c-0.2,0.3-0.5,0.2-0.8,0.2C144.1,94.6,142.8,93.7,142.3,92.2z"/>
		<path fill-rule="evenodd" clip-rule="evenodd" fill="#010203" d="M47.6,120.2c-0.4,1.8-1.4,2.8-2.9,3.4c-0.6,0.2-0.9,0-0.8-0.7
			c0.1-0.7,0.6-1.2,1.2-1.6C45.8,120.8,46.6,120.5,47.6,120.2z"/>
		<path fill-rule="evenodd" clip-rule="evenodd" fill="#010203" d="M113.8,109.8c1.5-0.1,2.6,0.1,3.7,0.7c0.1,0,0.1,0.1,0.2,0.1
			c0.3,0.3,0.7,0.7,0.5,1.2c-0.2,0.4-0.7,0.2-1,0.2C115.7,112,114.7,111.1,113.8,109.8z"/>
		<path fill-rule="evenodd" clip-rule="evenodd" fill="#010203" d="M78.1,146.3c0.8,0.9,1.4,1.9,1.4,3.1c0,0.3-0.1,0.6-0.2,0.9
			c-0.3,0.6-0.6,0.6-1,0C77.4,149,77.4,147.7,78.1,146.3z"/>
		<path fill-rule="evenodd" clip-rule="evenodd" fill="#010203" d="M97.9,147.1c0.1-0.6-0.1-1.5,0.4-1.6c0.6-0.1,0.7,0.8,1,1.3
			c0.4,0.7,0.6,1.5,0.2,2.4c-0.1,0.3-0.3,0.6-0.6,0.6c-0.3,0-0.4-0.3-0.5-0.5C98,148.6,97.8,147.8,97.9,147.1z"/>
		<path fill-rule="evenodd" clip-rule="evenodd" fill="#010203" d="M60.4,99.4c0-0.9,1.4-2.5,2.2-2.7c0.2,0,0.3,0.1,0.4,0.3
			c0,0.9-1,2.5-1.9,2.9C60.6,100.1,60.4,99.9,60.4,99.4z"/>
		<path fill-rule="evenodd" clip-rule="evenodd" fill="#010203" d="M73.3,126.6c0.8,0.9,0.9,2.7,0.2,3.6c-0.3,0.3-0.5,0.3-0.7,0
			c-0.2-0.3-0.4-0.6-0.4-0.9C72.5,128.3,72.7,127.4,73.3,126.6z"/>
		<path fill-rule="evenodd" clip-rule="evenodd" fill="#010203" d="M91,123.6c1,0.6,1.4,1.4,1.7,2.3c0.1,0.3,0.1,0.5,0,0.8
			c-0.1,0.2-0.1,0.5-0.4,0.5c-0.3,0.1-0.4-0.1-0.6-0.3C91,126,90.6,125,91,123.6z"/>
		<path fill-rule="evenodd" clip-rule="evenodd" fill="#010203" d="M79.7,120.1c0.1,0.6-0.1,1.2-0.5,1.7c-0.1,0.2-0.3,0.3-0.6,0.2
			c-0.2-0.1-0.2-0.3-0.3-0.5c-0.1-0.8,0.2-1.4,0.6-2c0.1-0.2,0.3-0.4,0.5-0.3c0.3,0.1,0.2,0.4,0.2,0.6
			C79.7,119.9,79.7,120,79.7,120.1z"/>
		<path fill-rule="evenodd" clip-rule="evenodd" fill="#010203" d="M63.7,124.6c-0.1-0.1-0.2-0.2-0.1-0.3c0,0,0.1,0,0.1-0.1
			C63.6,124.3,63.7,124.4,63.7,124.6L63.7,124.6z"/>
		<path fill-rule="evenodd" clip-rule="evenodd" fill="#010203" d="M31.2,89.3c-1.9,2.7-4.3,4.4-7.3,5.1c-1.8,0.4-3.7,0.3-5.5-0.2
			c-0.7-0.2-0.8-0.3-0.6-0.9c0.4-1.5,1.2-2.6,2.5-3.4c1.3-0.8,2.8-1.2,4.3-1.2c2-0.1,4-0.1,6,0.4C30.7,89.2,30.9,89.2,31.2,89.3z"/>
		<path fill-rule="evenodd" clip-rule="evenodd" fill="#010203" d="M15.1,87.8c1-0.1,2,0.1,3.1,0.2c0.6,0.1,0.7,0.3,0.4,0.8
			c-1,1.5-2.4,2.6-4.1,3.4c-2,0.9-4.1,1-6.2,0.6c-0.7-0.1-0.8-0.4-0.7-1.1c0.4-1.6,1.5-2.6,3-3.2C12,87.9,13.5,87.7,15.1,87.8z"/>
		<path fill-rule="evenodd" clip-rule="evenodd" fill="#010203" d="M25.5,95.6c0.5,0,1,0,1.5,0c0.5,0,0.6,0.2,0.4,0.7
			c-0.7,1.3-1.7,2.3-3,3.1c-1.9,1.2-3.9,1.4-6,1.3c-0.6,0-0.7-0.3-0.6-0.8c0.2-1.1,0.7-2,1.6-2.6c1.6-1.2,3.4-1.4,5.3-1.5
			C24.9,95.6,25.2,95.6,25.5,95.6C25.5,95.6,25.5,95.6,25.5,95.6z"/>
		<path fill-rule="evenodd" clip-rule="evenodd" fill="#010203" d="M16.6,93.1c-0.2,2.4-2.7,4.8-5.3,5c-0.6,0.1-0.7-0.1-0.7-0.7
			c0-0.7,0.3-1.3,0.8-1.9c0.6-0.8,1.5-1.3,2.4-1.7C14.6,93.5,15.5,93.2,16.6,93.1z"/>
		<path fill-rule="evenodd" clip-rule="evenodd" fill="#010203" d="M13.3,100.8c-0.1-0.9,0.3-1.4,0.6-2c0.6-0.8,1.4-1.4,2.2-1.9
			c0.2-0.1,0.4-0.3,0.6-0.1c0.2,0.1,0.2,0.4,0.2,0.6c-0.2,1.6-0.9,3-2.3,3.9c-0.3,0.2-0.7,0.6-1.1,0.3
			C13.1,101.4,13.3,101,13.3,100.8z"/>
		<path fill-rule="evenodd" clip-rule="evenodd" fill="#010203" d="M12.3,99c0.1,1.7-1.2,3.5-2.6,3.8c-0.5,0.1-0.7,0-0.7-0.5
			c0-0.6,0.2-1,0.5-1.4C10.2,100,11.1,99.4,12.3,99z"/>
		<path fill-rule="evenodd" clip-rule="evenodd" fill="#010203" d="M16.2,82.3c-0.7,0.8-1.7,1.4-2.7,2c-1.8,1-3.6,1.9-5.8,1.8
			c-1.1-0.1-2.1-0.5-2.9-1.3c-0.6-0.6-0.6-0.8,0-1.3c1.3-1.2,2.8-1.9,4.4-2.3c2.3-0.6,4.5-0.2,6.6,0.8c0.1,0,0.2,0.1,0.3,0.2
			C16.1,82.1,16.1,82.1,16.2,82.3z"/>
		<path fill-rule="evenodd" clip-rule="evenodd" fill="#010203" d="M23.4,83.1c-1.4,2-3.1,3.1-5.3,3.4c-0.7,0.1-1.5,0.1-2.3-0.1
			c-0.7-0.1-0.8-0.4-0.6-1.1c0.4-1,1.2-1.7,2.3-2.1C19.4,82.6,21.3,82.7,23.4,83.1z"/>
		<path fill-rule="evenodd" clip-rule="evenodd" fill="#010203" d="M131.4,70.7c0.9-0.7,1.9-1,2.9-1.4c1.7-0.7,3.4-1,5.2-0.8
			c1.6,0.1,2.8,0.8,3.7,2.2c0.4,0.6,0.4,0.8-0.3,1.2C139.3,73.7,135.1,73.8,131.4,70.7z"/>
		<path fill-rule="evenodd" clip-rule="evenodd" fill="#010203" d="M143.5,57c0.3,0,0.7-0.2,0.9,0.2c0.2,0.4-0.1,0.7-0.3,1
			c-0.3,0.4-0.7,0.6-1.1,0.8c-0.8,0.3-1.6,0.3-2.4,0.5c-0.2,0-0.4,0-0.5-0.2c-0.1-0.2,0-0.4,0.2-0.6C140.9,57.7,142.2,57,143.5,57z"
			/>
		<path fill-rule="evenodd" clip-rule="evenodd" fill="#010203" d="M141.5,74c1.3-0.7,2.5-0.7,3.8-0.5c0.2,0,0.5,0.2,0.7,0.3
			c0.3,0.2,0.5,0.4,0.5,0.7c0,0.4-0.4,0.4-0.6,0.5C144.3,75.6,142.9,75.2,141.5,74z"/>
		<path fill-rule="evenodd" clip-rule="evenodd" fill="#010203" d="M10.2,94.4c-0.6,1.4-1.6,1.9-2.8,2.3c-0.2,0.1-0.4,0-0.6,0.1
			c-0.5,0.1-1,0.3-1.2-0.2c-0.2-0.4,0.2-0.8,0.5-1.2c0.5-0.5,1.1-0.7,1.8-0.9C8.7,94.4,9.4,94.4,10.2,94.4z"/>
		<path fill-rule="evenodd" clip-rule="evenodd" fill="#010203" d="M86,80.1c2-0.4,4.1-0.8,6.2-0.7c1.7,0.1,3.3,0.4,4.7,1.4
			c1,0.7,1.6,1.6,2,2.8c0.2,0.5,0.1,0.7-0.5,0.9c-3.7,1.1-7.1,0.6-10.2-1.8c-0.8-0.6-1.5-1.3-2.1-2.1C86,80.5,85.8,80.4,86,80.1z"/>
		<path fill-rule="evenodd" clip-rule="evenodd" fill="#010203" d="M83.3,82.6c-3.4-0.1-5.8-1.6-7.7-4.4c-0.1-0.2-0.2-0.3-0.3-0.5
			c-0.1-0.3,0-0.5,0.3-0.6c0.1,0,0.2,0,0.2,0c2.1,0.1,4.3,0.2,6.2,1.1c1.2,0.6,2.2,1.5,2.6,2.9c0.3,1.2,0.2,1.4-1,1.4
			C83.6,82.6,83.5,82.6,83.3,82.6z"/>
		<path fill-rule="evenodd" clip-rule="evenodd" fill="#010203" d="M44.3,97.3c-0.2,1.3-0.8,2.3-1.5,3.3c-1.6,2.3-3.9,3.2-6.6,3.6
			c-0.4,0.1-0.5-0.2-0.5-0.5c-0.2-1.7,0.5-3,1.8-4c1.6-1.3,3.5-1.9,5.5-2.3C43.4,97.3,43.7,97.1,44.3,97.3z"/>
		<path fill-rule="evenodd" clip-rule="evenodd" fill="#010203" d="M71.3,74.1c-1.7,0.3-3.4,0-4.9-0.8c-1.8-0.9-3.1-2.4-4-4.2
			c-0.3-0.6-0.3-0.8,0.4-1c0.9-0.4,1.7-0.5,2.7-0.2c1,0.3,1.9,0.8,2.6,1.5c1.2,1.1,2.2,2.5,3.1,3.9C71.2,73.5,71.4,73.7,71.3,74.1z"
			/>
		<path fill-rule="evenodd" clip-rule="evenodd" fill="#010203" d="M117.2,91.3c-2.7,0-5-1.4-6.8-3.6c-0.2-0.2-0.4-0.4-0.3-0.7
			c0.1-0.3,0.4-0.2,0.7-0.3c1.9-0.2,3.8-0.3,5.6,0.2c0.8,0.2,1.5,0.5,2.1,1c0.7,0.5,1.1,1.1,1.4,1.9c0.3,0.9,0.1,1-0.7,1.3
			C118.7,91.3,118.1,91.2,117.2,91.3z"/>
		<path fill-rule="evenodd" clip-rule="evenodd" fill="#010203" d="M74.9,74.7c2-2,3.9-3.9,6.7-4.5c1.2-0.3,2.3,0,3.2,0.6
			c0.6,0.4,0.7,0.6,0.2,1.2c-1.6,1.9-3.7,3.1-6.2,3.3C77.6,75.4,76.3,75.3,74.9,74.7z"/>
	</g>
	<circle fill-rule="evenodd" clip-rule="evenodd" fill="#FFFFFF" cx="75.2" cy="75.3" r="47.6"/>
	<circle fill-rule="evenodd" clip-rule="evenodd" fill="#010203" cx="75.3" cy="75.2" r="42.7"/>
	<path fill="#FFFFFF" d="M93.8,95.3H89V68.1c0-1.1,0-2.3,0.1-3.7c0.1-1.4,0.2-2.8,0.3-4.4h-0.1c-0.1,0.5-0.3,1-0.5,1.5
		c-0.2,0.6-0.5,1.1-0.7,1.6c-0.3,0.5-0.5,1-0.7,1.4c-0.2,0.4-0.4,0.7-0.5,0.9L76.5,84.7h-2.3L63.8,65.6c-0.1-0.2-0.3-0.6-0.5-1
		c-0.2-0.4-0.5-0.9-0.7-1.4c-0.2-0.5-0.5-1.1-0.7-1.6c-0.2-0.5-0.4-1.1-0.5-1.5h-0.1c0.1,0.8,0.1,1.9,0.2,3.3c0,1.4,0.1,3,0.1,4.8
		v27.2h-4.6V54.8h5.9L73.4,74c0.5,0.8,0.8,1.6,1.2,2.4c0.3,0.7,0.6,1.4,0.7,1.9h0.2c0.2-0.6,0.4-1.2,0.7-2c0.3-0.8,0.7-1.6,1.2-2.4
		l10.5-19.2h5.9V95.3z"/>
</g>
</svg>
