<!-- Generator: Adobe Illustrator 18.0.0, SVG Export Plug-In  -->
<svg version="1.1"
	 xmlns="http://www.w3.org/2000/svg" xmlns:xlink="http://www.w3.org/1999/xlink" xmlns:a="http://ns.adobe.com/AdobeSVGViewerExtensions/3.0/"
	 x="0px" y="0px" width="313.5px" height="307.2px" viewBox="0 0 313.5 307.2" enable-background="new 0 0 313.5 307.2"
	 xml:space="preserve">
<defs>
</defs>
<rect x="0.5" y="49.8" fill="#FFFFFF" stroke="#000000" stroke-miterlimit="10" width="226.2" height="224.2"/>
<rect x="8.6" y="59.2" fill="#FFFFFF" stroke="#000000" stroke-miterlimit="10" width="207.4" height="203.3"/>
<rect x="21.3" y="76" fill="#D7D6D8" stroke="#000000" stroke-miterlimit="10" width="180.4" height="175.1"/>
<g>
	<g>
		<line fill="none" stroke="#000000" stroke-miterlimit="10" x1="24.9" y1="36.3" x2="198.1" y2="36.3"/>
		<g>
			<polygon points="25.6,38.8 21.3,36.3 25.6,33.8 			"/>
		</g>
		<g>
			<polygon points="197.4,38.8 201.7,36.3 197.4,33.8 			"/>
		</g>
	</g>
</g>
<g>
	<g>
		<line fill="none" stroke="#000000" stroke-miterlimit="10" x1="4.1" y1="291.1" x2="223.6" y2="291.1"/>
		<g>
			<polygon points="4.8,293.6 0.5,291.1 4.8,288.6 			"/>
		</g>
		<g>
			<polygon points="222.8,293.6 227.2,291.1 222.8,288.6 			"/>
		</g>
	</g>
</g>
<g>
	<path d="M104.8,307.1h-4.1v-0.3l2.3-2.6c0.4-0.5,0.7-0.9,0.9-1.3c0.2-0.4,0.3-0.7,0.3-1c0-0.5-0.1-0.9-0.4-1.2
		c-0.3-0.3-0.7-0.4-1.2-0.4c-0.6,0-1,0.2-1.3,0.5c-0.3,0.3-0.5,0.8-0.5,1.3h-0.2l0,0c0-0.6,0.2-1,0.5-1.4c0.4-0.4,0.9-0.6,1.5-0.6
		c0.6,0,1,0.2,1.4,0.5s0.5,0.8,0.5,1.4c0,0.4-0.1,0.8-0.4,1.2c-0.2,0.4-0.6,0.9-1,1.4l-2,2.3l0,0h3.8V307.1z"/>
	<path d="M110.1,304.3c0,0.9-0.2,1.6-0.5,2.1c-0.4,0.5-0.9,0.7-1.5,0.7s-1.2-0.2-1.6-0.7s-0.6-1.2-0.6-2.1v-1.5
		c0-0.9,0.2-1.6,0.5-2.1c0.4-0.5,0.9-0.7,1.5-0.7s1.2,0.2,1.6,0.7c0.4,0.5,0.6,1.2,0.6,2.1V304.3z M109.8,302.9
		c0-0.8-0.2-1.4-0.5-1.9s-0.8-0.7-1.4-0.7s-1.1,0.2-1.4,0.7s-0.5,1.1-0.5,1.9v1.4c0,0.8,0.2,1.4,0.5,1.9c0.3,0.5,0.8,0.7,1.4,0.7
		c0.6,0,1.1-0.2,1.4-0.7s0.5-1.1,0.5-1.9V302.9z"/>
	<path d="M115.6,304.3c0,0.9-0.2,1.6-0.5,2.1c-0.4,0.5-0.9,0.7-1.5,0.7s-1.2-0.2-1.6-0.7s-0.6-1.2-0.6-2.1v-1.5
		c0-0.9,0.2-1.6,0.5-2.1c0.4-0.5,0.9-0.7,1.5-0.7s1.2,0.2,1.6,0.7c0.4,0.5,0.6,1.2,0.6,2.1V304.3z M115.4,302.9
		c0-0.8-0.2-1.4-0.5-1.9s-0.8-0.7-1.4-0.7s-1.1,0.2-1.4,0.7s-0.5,1.1-0.5,1.9v1.4c0,0.8,0.2,1.4,0.5,1.9c0.3,0.5,0.8,0.7,1.4,0.7
		c0.6,0,1.1-0.2,1.4-0.7s0.5-1.1,0.5-1.9V302.9z"/>
	<path d="M119.6,301.9l0,1.1c0.2-0.4,0.4-0.6,0.7-0.8c0.3-0.2,0.6-0.3,1.1-0.3c0.4,0,0.8,0.1,1.1,0.3c0.3,0.2,0.5,0.6,0.6,1
		c0.1-0.4,0.4-0.8,0.7-1c0.3-0.2,0.7-0.4,1.2-0.4c0.6,0,1,0.2,1.3,0.6c0.3,0.4,0.4,1,0.4,1.7v2.9h-0.3v-2.9c0-0.7-0.1-1.3-0.4-1.6
		c-0.3-0.3-0.6-0.5-1.1-0.5c-0.5,0-1,0.2-1.2,0.5s-0.5,0.7-0.5,1.3c0,0.1,0,0.1,0,0.2c0,0,0,0.1,0,0.1v2.9h-0.3v-2.9
		c0-0.7-0.1-1.3-0.4-1.6s-0.6-0.5-1.1-0.5c-0.5,0-0.9,0.2-1.2,0.5c-0.3,0.3-0.4,0.7-0.5,1.2v3.3h-0.3v-5.1H119.6z"/>
	<path d="M128.3,301.9l0,1.1c0.2-0.4,0.4-0.6,0.7-0.8c0.3-0.2,0.6-0.3,1.1-0.3c0.4,0,0.8,0.1,1.1,0.3c0.3,0.2,0.5,0.6,0.6,1
		c0.1-0.4,0.4-0.8,0.7-1c0.3-0.2,0.7-0.4,1.2-0.4c0.6,0,1,0.2,1.3,0.6c0.3,0.4,0.4,1,0.4,1.7v2.9H135v-2.9c0-0.7-0.1-1.3-0.4-1.6
		c-0.3-0.3-0.6-0.5-1.1-0.5c-0.5,0-1,0.2-1.2,0.5s-0.5,0.7-0.5,1.3c0,0.1,0,0.1,0,0.2c0,0,0,0.1,0,0.1v2.9h-0.3v-2.9
		c0-0.7-0.1-1.3-0.4-1.6s-0.6-0.5-1.1-0.5c-0.5,0-0.9,0.2-1.2,0.5c-0.3,0.3-0.4,0.7-0.5,1.2v3.3h-0.3v-5.1H128.3z"/>
</g>
<g>
	<path d="M103,31.9h-0.3v-6.7l-1.9,0.4v-0.2l2.1-0.4V31.9z"/>
	<path d="M109.9,26.7c0,0.4-0.1,0.7-0.4,1c-0.2,0.3-0.5,0.5-0.9,0.6c0.4,0.1,0.8,0.3,1.1,0.6c0.3,0.3,0.4,0.7,0.4,1.1
		c0,0.6-0.2,1.1-0.6,1.4c-0.4,0.3-0.9,0.5-1.6,0.5c-0.7,0-1.2-0.2-1.6-0.5c-0.4-0.3-0.6-0.8-0.6-1.4c0-0.4,0.1-0.8,0.4-1.1
		c0.3-0.3,0.6-0.5,1.1-0.6c-0.4-0.1-0.7-0.3-0.9-0.6c-0.2-0.3-0.3-0.6-0.3-1c0-0.6,0.2-1,0.6-1.4s0.9-0.5,1.4-0.5
		c0.6,0,1.1,0.2,1.4,0.5C109.7,25.7,109.9,26.1,109.9,26.7z M109.8,30.1c0-0.5-0.2-0.9-0.6-1.2s-0.8-0.4-1.4-0.4
		c-0.6,0-1,0.1-1.4,0.4c-0.4,0.3-0.5,0.7-0.5,1.2c0,0.5,0.2,0.9,0.5,1.2c0.4,0.3,0.8,0.4,1.4,0.4c0.6,0,1-0.1,1.4-0.4
		C109.6,31,109.8,30.6,109.8,30.1z M109.6,26.7c0-0.5-0.2-0.8-0.5-1.1s-0.8-0.4-1.2-0.4c-0.5,0-0.9,0.1-1.3,0.4
		c-0.3,0.3-0.5,0.7-0.5,1.1c0,0.5,0.2,0.8,0.5,1.1c0.3,0.3,0.7,0.4,1.3,0.4c0.5,0,0.9-0.1,1.2-0.4C109.5,27.5,109.6,27.2,109.6,26.7
		z"/>
	<path d="M115.4,29.1c0,0.9-0.2,1.6-0.5,2.1c-0.4,0.5-0.9,0.7-1.5,0.7s-1.2-0.2-1.6-0.7s-0.6-1.2-0.6-2.1v-1.5
		c0-0.9,0.2-1.6,0.5-2.1s0.9-0.7,1.5-0.7s1.2,0.2,1.6,0.7c0.4,0.5,0.6,1.2,0.6,2.1V29.1z M115.1,27.7c0-0.8-0.2-1.4-0.5-1.9
		c-0.3-0.5-0.8-0.7-1.4-0.7s-1.1,0.2-1.4,0.7c-0.3,0.5-0.5,1.1-0.5,1.9v1.4c0,0.8,0.2,1.4,0.5,1.9c0.3,0.5,0.8,0.7,1.4,0.7
		c0.6,0,1.1-0.2,1.4-0.7s0.5-1.1,0.5-1.9V27.7z"/>
	<path d="M119.4,26.7l0,1.1c0.2-0.4,0.4-0.6,0.7-0.8s0.6-0.3,1.1-0.3c0.4,0,0.8,0.1,1.1,0.3c0.3,0.2,0.5,0.6,0.6,1
		c0.1-0.4,0.4-0.8,0.7-1c0.3-0.2,0.7-0.4,1.2-0.4c0.6,0,1,0.2,1.3,0.6c0.3,0.4,0.4,1,0.4,1.7v2.9h-0.3v-2.9c0-0.7-0.1-1.3-0.4-1.6
		s-0.6-0.5-1.1-0.5c-0.5,0-1,0.2-1.2,0.5s-0.5,0.7-0.5,1.3c0,0.1,0,0.1,0,0.2c0,0,0,0.1,0,0.1v2.9h-0.3v-2.9c0-0.7-0.1-1.3-0.4-1.6
		s-0.6-0.5-1.1-0.5c-0.5,0-0.9,0.2-1.2,0.5c-0.3,0.3-0.4,0.7-0.5,1.2v3.3h-0.3v-5.1H119.4z"/>
	<path d="M128.1,26.7l0,1.1c0.2-0.4,0.4-0.6,0.7-0.8s0.6-0.3,1.1-0.3c0.4,0,0.8,0.1,1.1,0.3c0.3,0.2,0.5,0.6,0.6,1
		c0.1-0.4,0.4-0.8,0.7-1c0.3-0.2,0.7-0.4,1.2-0.4c0.6,0,1,0.2,1.3,0.6c0.3,0.4,0.4,1,0.4,1.7v2.9h-0.3v-2.9c0-0.7-0.1-1.3-0.4-1.6
		s-0.6-0.5-1.1-0.5c-0.5,0-1,0.2-1.2,0.5s-0.5,0.7-0.5,1.3c0,0.1,0,0.1,0,0.2c0,0,0,0.1,0,0.1v2.9h-0.3v-2.9c0-0.7-0.1-1.3-0.4-1.6
		s-0.6-0.5-1.1-0.5c-0.5,0-0.9,0.2-1.2,0.5c-0.3,0.3-0.4,0.7-0.5,1.2v3.3h-0.3v-5.1H128.1z"/>
</g>
<g>
	<g>
		<line fill="none" stroke="#000000" stroke-miterlimit="10" x1="10.6" y1="12.2" x2="212.5" y2="12.2"/>
		<g>
			<polygon points="11.3,14.7 7,12.2 11.3,9.7 			"/>
		</g>
		<g>
			<polygon points="211.7,14.7 216,12.2 211.7,9.7 			"/>
		</g>
	</g>
</g>
<g>
	<path d="M103,7.1h-0.3V0.3l-1.9,0.4V0.5l2.1-0.4V7.1z"/>
	<path d="M107.7,6.8c0.6,0,1-0.2,1.4-0.5c0.3-0.4,0.5-0.8,0.5-1.5V3.5c-0.2,0.3-0.4,0.6-0.8,0.8c-0.3,0.2-0.7,0.3-1.1,0.3
		c-0.6,0-1.1-0.2-1.5-0.7c-0.4-0.4-0.6-1-0.6-1.6c0-0.7,0.2-1.2,0.6-1.7s0.9-0.7,1.5-0.7c0.6,0,1.1,0.2,1.5,0.6s0.6,1,0.6,1.8v2.4
		c0,0.7-0.2,1.3-0.6,1.7c-0.4,0.4-0.9,0.6-1.6,0.6c-0.2,0-0.5,0-0.7-0.1c-0.2-0.1-0.5-0.1-0.7-0.2l0.1-0.3c0.2,0.1,0.5,0.2,0.7,0.2
		C107.1,6.8,107.4,6.8,107.7,6.8z M107.7,4.3c0.5,0,0.9-0.1,1.2-0.4c0.3-0.3,0.5-0.6,0.7-1V2.4c0-0.7-0.2-1.2-0.5-1.6
		c-0.3-0.4-0.8-0.6-1.3-0.6c-0.5,0-1,0.2-1.3,0.6c-0.3,0.4-0.5,0.9-0.5,1.5c0,0.5,0.2,1,0.5,1.4C106.8,4.1,107.2,4.3,107.7,4.3z"/>
	<path d="M115.4,4.3c0,0.9-0.2,1.6-0.5,2.1c-0.4,0.5-0.9,0.7-1.5,0.7s-1.2-0.2-1.6-0.7s-0.6-1.2-0.6-2.1V2.8c0-0.9,0.2-1.6,0.5-2.1
		s0.9-0.7,1.5-0.7s1.2,0.2,1.6,0.7c0.4,0.5,0.6,1.2,0.6,2.1V4.3z M115.1,2.8c0-0.8-0.2-1.4-0.5-1.9c-0.3-0.5-0.8-0.7-1.4-0.7
		s-1.1,0.2-1.4,0.7c-0.3,0.5-0.5,1.1-0.5,1.9v1.4c0,0.8,0.2,1.4,0.5,1.9c0.3,0.5,0.8,0.7,1.4,0.7c0.6,0,1.1-0.2,1.4-0.7
		s0.5-1.1,0.5-1.9V2.8z"/>
	<path d="M119.4,1.9l0,1.1c0.2-0.4,0.4-0.6,0.7-0.8s0.6-0.3,1.1-0.3c0.4,0,0.8,0.1,1.1,0.3c0.3,0.2,0.5,0.6,0.6,1
		c0.1-0.4,0.4-0.8,0.7-1c0.3-0.2,0.7-0.4,1.2-0.4c0.6,0,1,0.2,1.3,0.6c0.3,0.4,0.4,1,0.4,1.7V7h-0.3V4.1c0-0.7-0.1-1.3-0.4-1.6
		S125,2,124.6,2c-0.5,0-1,0.2-1.2,0.5s-0.5,0.7-0.5,1.3c0,0.1,0,0.1,0,0.2c0,0,0,0.1,0,0.1V7h-0.3V4.1c0-0.7-0.1-1.3-0.4-1.6
		S121.6,2,121.1,2c-0.5,0-0.9,0.2-1.2,0.5c-0.3,0.3-0.4,0.7-0.5,1.2V7h-0.3V1.9H119.4z"/>
	<path d="M128.1,1.9l0,1.1c0.2-0.4,0.4-0.6,0.7-0.8s0.6-0.3,1.1-0.3c0.4,0,0.8,0.1,1.1,0.3c0.3,0.2,0.5,0.6,0.6,1
		c0.1-0.4,0.4-0.8,0.7-1c0.3-0.2,0.7-0.4,1.2-0.4c0.6,0,1,0.2,1.3,0.6c0.3,0.4,0.4,1,0.4,1.7V7h-0.3V4.1c0-0.7-0.1-1.3-0.4-1.6
		S133.7,2,133.3,2c-0.5,0-1,0.2-1.2,0.5s-0.5,0.7-0.5,1.3c0,0.1,0,0.1,0,0.2c0,0,0,0.1,0,0.1V7h-0.3V4.1c0-0.7-0.1-1.3-0.4-1.6
		S130.3,2,129.8,2c-0.5,0-0.9,0.2-1.2,0.5c-0.3,0.3-0.4,0.7-0.5,1.2V7h-0.3V1.9H128.1z"/>
</g>
<g>
	<g>
		<line fill="none" stroke="#000000" stroke-width="0.5" stroke-miterlimit="10" x1="21.3" y1="251.1" x2="21.3" y2="250.6"/>
		
			<line fill="none" stroke="#000000" stroke-width="0.5" stroke-miterlimit="10" stroke-dasharray="0.9942,1.9885,0.9942,1.9885" x1="21.3" y1="248.6" x2="21.3" y2="243.6"/>
		
			<line fill="none" stroke="#000000" stroke-width="0.5" stroke-miterlimit="10" stroke-dasharray="0.9942,1.9885,0.9942,1.9885,0.9942,1.9885" x1="21.3" y1="242.6" x2="21.3" y2="37.8"/>
		<line fill="none" stroke="#000000" stroke-width="0.5" stroke-miterlimit="10" x1="21.3" y1="36.8" x2="21.3" y2="36.3"/>
	</g>
</g>
<g>
	<g>
		<line fill="none" stroke="#000000" stroke-width="0.5" stroke-miterlimit="10" x1="8.6" y1="262.5" x2="8.6" y2="262"/>
		
			<line fill="none" stroke="#000000" stroke-width="0.5" stroke-miterlimit="10" stroke-dasharray="0.9983,1.9966,0.9983,1.9966" x1="8.6" y1="260" x2="8.6" y2="255"/>
		
			<line fill="none" stroke="#000000" stroke-width="0.5" stroke-miterlimit="10" stroke-dasharray="0.9983,1.9966,0.9983,1.9966,0.9983,1.9966" x1="8.6" y1="254" x2="8.6" y2="12.4"/>
		<line fill="none" stroke="#000000" stroke-width="0.5" stroke-miterlimit="10" x1="8.6" y1="11.4" x2="8.6" y2="10.9"/>
	</g>
</g>
<g>
	<g>
		<line fill="none" stroke="#000000" stroke-width="0.5" stroke-miterlimit="10" x1="0.5" y1="291.1" x2="0.5" y2="290.6"/>
		
			<line fill="none" stroke="#000000" stroke-width="0.5" stroke-miterlimit="10" stroke-dasharray="0.9995,1.9991,0.9995,1.9991" x1="0.5" y1="288.6" x2="0.5" y2="283.6"/>
		
			<line fill="none" stroke="#000000" stroke-width="0.5" stroke-miterlimit="10" stroke-dasharray="0.9995,1.9991,0.9995,1.9991,0.9995,1.9991" x1="0.5" y1="282.6" x2="0.5" y2="49.8"/>
		<line fill="none" stroke="#000000" stroke-width="0.5" stroke-miterlimit="10" x1="0.5" y1="48.8" x2="0.5" y2="48.3"/>
	</g>
</g>
<g>
	<g>
		<line fill="none" stroke="#000000" stroke-width="0.5" stroke-miterlimit="10" x1="226.7" y1="291.1" x2="226.7" y2="290.6"/>
		
			<line fill="none" stroke="#000000" stroke-width="0.5" stroke-miterlimit="10" stroke-dasharray="0.9995,1.9991,0.9995,1.9991" x1="226.7" y1="288.6" x2="226.7" y2="283.6"/>
		
			<line fill="none" stroke="#000000" stroke-width="0.5" stroke-miterlimit="10" stroke-dasharray="0.9995,1.9991,0.9995,1.9991,0.9995,1.9991" x1="226.7" y1="282.6" x2="226.7" y2="49.8"/>
		<line fill="none" stroke="#000000" stroke-width="0.5" stroke-miterlimit="10" x1="226.7" y1="48.8" x2="226.7" y2="48.3"/>
	</g>
</g>
<g>
	<g>
		<line fill="none" stroke="#000000" stroke-width="0.5" stroke-miterlimit="10" x1="216" y1="262.5" x2="216" y2="262"/>
		
			<line fill="none" stroke="#000000" stroke-width="0.5" stroke-miterlimit="10" stroke-dasharray="0.9983,1.9966,0.9983,1.9966" x1="216" y1="260" x2="216" y2="255"/>
		
			<line fill="none" stroke="#000000" stroke-width="0.5" stroke-miterlimit="10" stroke-dasharray="0.9983,1.9966,0.9983,1.9966,0.9983,1.9966" x1="216" y1="254" x2="216" y2="12.4"/>
		<line fill="none" stroke="#000000" stroke-width="0.5" stroke-miterlimit="10" x1="216" y1="11.4" x2="216" y2="10.9"/>
	</g>
</g>
<g>
	<g>
		<line fill="none" stroke="#000000" stroke-width="0.5" stroke-miterlimit="10" x1="201.7" y1="251.1" x2="201.7" y2="250.6"/>
		
			<line fill="none" stroke="#000000" stroke-width="0.5" stroke-miterlimit="10" stroke-dasharray="0.9942,1.9885,0.9942,1.9885" x1="201.7" y1="248.6" x2="201.7" y2="243.6"/>
		
			<line fill="none" stroke="#000000" stroke-width="0.5" stroke-miterlimit="10" stroke-dasharray="0.9942,1.9885,0.9942,1.9885,0.9942,1.9885" x1="201.7" y1="242.6" x2="201.7" y2="37.8"/>
		<line fill="none" stroke="#000000" stroke-width="0.5" stroke-miterlimit="10" x1="201.7" y1="36.8" x2="201.7" y2="36.3"/>
	</g>
</g>
<rect x="247.9" y="49.8" fill="#FFFFFF" stroke="#000000" stroke-miterlimit="10" width="65.2" height="224.2"/>
<g>
	<g>
		<line fill="none" stroke="#000000" stroke-miterlimit="10" x1="251.4" y1="291.1" x2="309.6" y2="291.1"/>
		<g>
			<polygon points="252.2,293.6 247.9,291.1 252.2,288.6 			"/>
		</g>
		<g>
			<polygon points="308.9,293.6 313.2,291.1 308.9,288.6 			"/>
		</g>
	</g>
</g>
<g>
	<path d="M270.9,307.1h-4.1v-0.3l2.3-2.6c0.4-0.5,0.7-0.9,0.9-1.3c0.2-0.4,0.3-0.7,0.3-1c0-0.5-0.1-0.9-0.4-1.2
		c-0.3-0.3-0.7-0.4-1.2-0.4c-0.6,0-1,0.2-1.3,0.5s-0.5,0.8-0.5,1.3h-0.2l0,0c0-0.6,0.2-1,0.5-1.4c0.4-0.4,0.9-0.6,1.5-0.6
		c0.6,0,1,0.2,1.4,0.5c0.3,0.3,0.5,0.8,0.5,1.4c0,0.4-0.1,0.8-0.4,1.2c-0.2,0.4-0.6,0.9-1,1.4l-2,2.3l0,0h3.8V307.1z"/>
	<path d="M276.3,304.3c0,0.9-0.2,1.6-0.5,2.1s-0.9,0.7-1.5,0.7s-1.2-0.2-1.6-0.7s-0.6-1.2-0.6-2.1v-1.5c0-0.9,0.2-1.6,0.5-2.1
		c0.4-0.5,0.9-0.7,1.5-0.7c0.7,0,1.2,0.2,1.5,0.7c0.4,0.5,0.6,1.2,0.6,2.1V304.3z M276,302.9c0-0.8-0.2-1.4-0.5-1.9
		c-0.3-0.5-0.8-0.7-1.4-0.7c-0.6,0-1.1,0.2-1.4,0.7s-0.5,1.1-0.5,1.9v1.4c0,0.8,0.2,1.4,0.5,1.9c0.3,0.5,0.8,0.7,1.4,0.7
		c0.6,0,1.1-0.2,1.4-0.7s0.5-1.1,0.5-1.9V302.9z"/>
	<path d="M280.2,301.9l0,1.1c0.2-0.4,0.4-0.6,0.7-0.8c0.3-0.2,0.6-0.3,1.1-0.3c0.4,0,0.8,0.1,1.1,0.3s0.5,0.6,0.6,1
		c0.1-0.4,0.4-0.8,0.7-1c0.3-0.2,0.7-0.4,1.2-0.4c0.6,0,1,0.2,1.3,0.6c0.3,0.4,0.4,1,0.4,1.7v2.9h-0.3v-2.9c0-0.7-0.1-1.3-0.4-1.6
		c-0.3-0.3-0.6-0.5-1.1-0.5c-0.5,0-1,0.2-1.2,0.5s-0.5,0.7-0.5,1.3c0,0.1,0,0.1,0,0.2c0,0,0,0.1,0,0.1v2.9h-0.3v-2.9
		c0-0.7-0.1-1.3-0.4-1.6c-0.3-0.3-0.6-0.5-1.1-0.5c-0.5,0-0.9,0.2-1.2,0.5c-0.3,0.3-0.4,0.7-0.5,1.2v3.3H280v-5.1H280.2z"/>
	<path d="M288.9,301.9l0,1.1c0.2-0.4,0.4-0.6,0.7-0.8c0.3-0.2,0.6-0.3,1.1-0.3c0.4,0,0.8,0.1,1.1,0.3s0.5,0.6,0.6,1
		c0.1-0.4,0.4-0.8,0.7-1c0.3-0.2,0.7-0.4,1.2-0.4c0.6,0,1,0.2,1.3,0.6c0.3,0.4,0.4,1,0.4,1.7v2.9h-0.3v-2.9c0-0.7-0.1-1.3-0.4-1.6
		c-0.3-0.3-0.6-0.5-1.1-0.5c-0.5,0-1,0.2-1.2,0.5s-0.5,0.7-0.5,1.3c0,0.1,0,0.1,0,0.2c0,0,0,0.1,0,0.1v2.9h-0.3v-2.9
		c0-0.7-0.1-1.3-0.4-1.6c-0.3-0.3-0.6-0.5-1.1-0.5c-0.5,0-0.9,0.2-1.2,0.5c-0.3,0.3-0.4,0.7-0.5,1.2v3.3h-0.3v-5.1H288.9z"/>
</g>
</svg>
